<?xml version="1.0" encoding="UTF-8"?>
<svg version="1.1" xmlns="http://www.w3.org/2000/svg" width="493" height="490">
<path d="M0 0 C162.69 0 325.38 0 493 0 C493 161.7 493 323.4 493 490 C330.31 490 167.62 490 0 490 C0 328.3 0 166.6 0 0 Z " fill="#ECAA20" transform="translate(0,0)"/>
<path d="M0 0 C1.22589844 0.20625 2.45179688 0.4125 3.71484375 0.625 C40.89235351 7.49094094 74.79847694 23.83461078 103 49 C103.53141602 49.46970215 104.06283203 49.9394043 104.61035156 50.42333984 C110.82788038 55.93270904 116.77243064 61.5213884 122 68 C122.83015625 69.01578125 123.6603125 70.0315625 124.515625 71.078125 C159.95448945 114.94942848 176.16462499 169.2146118 170.3125 225.5 C164.27350787 274.25269759 140.2212007 320.24243418 103.125 352.5 C101 354 101 354 99 354 C99 266.22 99 178.44 99 88 C91.33473688 88.1866752 91.33473688 88.1866752 88 91.6875 C72.01757737 112.96844318 65.34669564 139.41551206 60 165 C59.72542969 166.27931396 59.72542969 166.27931396 59.4453125 167.58447266 C54.1246979 192.54413118 52.49194277 217.86067325 51.40332031 243.29785156 C51.28168483 246.07977274 51.14979769 248.86117144 51.01812267 251.64263248 C50.67509329 258.90845198 50.37709251 266.17466886 50.12606812 273.44436646 C50.04457061 275.74292762 49.95497854 278.04122237 49.85562134 280.33908081 C49.73208141 283.28460807 49.64487179 286.22866775 49.5703125 289.17578125 C49.52864456 290.01567596 49.48697662 290.85557068 49.44404602 291.72091675 C49.38305794 295.97013346 49.6942635 297.66436417 52.60131836 300.85571289 C55.54506127 302.88972744 55.54506127 302.88972744 58.87109375 304.4453125 C64.06261128 307.02486802 67.59422649 311.17425324 70.16015625 316.33203125 C71.15733494 319.49981286 71.3010747 322.17904482 71.3125 325.5 C71.32925781 326.6034375 71.34601563 327.706875 71.36328125 328.84375 C71.20603256 332.34331287 70.39881972 335.51964634 69.5234375 338.90625 C68.25810798 344.10969791 67.70349254 348.98900949 67.55078125 354.3125 C67.51616539 355.37724548 67.51616539 355.37724548 67.48085022 356.46350098 C67.39327727 359.38834277 67.31843244 362.31168621 67.29321289 365.23779297 C67.15186174 377.5178427 67.15186174 377.5178427 64.48364258 380.95117188 C62.37143064 382.32802114 60.37510572 383.15972591 58 384 C56.40523526 384.75554569 54.81285375 385.51613838 53.22265625 386.28125 C51.50695281 387.03086616 49.78669704 387.77013205 48.0625 388.5 C47.145896 388.88945801 46.22929199 389.27891602 45.28491211 389.68017578 C32.54516489 394.97929213 19.52449227 398.36368851 6 401 C4.65776147 396.97328442 4.85564133 393.09128553 4.8581543 388.89233398 C4.85467987 387.95830246 4.85120544 387.02427094 4.84762573 386.06193542 C4.84026371 384.02726781 4.83492071 381.99259213 4.83133507 379.95791435 C4.82414275 376.71179206 4.80844613 373.46581861 4.78999329 370.21974182 C4.73772099 360.98693143 4.68977429 351.75419469 4.67407227 342.52124023 C4.94873688 309.58141512 4.94873688 309.58141512 0.89355469 276.98388672 C-2.62290016 259.42740397 -0.22630048 241.37716746 9 226 C11.77287179 222.00341953 14.85828349 218.31384553 18.046875 214.64453125 C29.39329224 201.22931237 30.32396665 188.97221738 29 172 C27.94133483 161.00281387 26.45944575 150.04988147 25.0287323 139.09643555 C23.77162812 129.39224944 22.71871411 119.66787525 21.6875 109.9375 C21.51468002 108.31624012 21.34182941 106.69498351 21.16894531 105.07373047 C20.77626608 101.38280365 20.38697551 97.6915297 20 94 C17.03 94 14.06 94 11 94 C11.14121738 102.41674881 11.28762834 110.83340092 11.4375 119.25 C11.45956512 120.48972565 11.48163025 121.72945129 11.50436401 123.00674438 C11.77121684 137.806424 12.0897974 152.59477854 12.69287109 167.38476562 C13.05790827 176.59264217 13.10212171 185.78635247 13 195 C9.37 195 5.74 195 2 195 C2 161.67 2 128.34 2 94 C-0.64 94 -3.28 94 -6 94 C-6 127.33 -6 160.66 -6 195 C-9.63 195 -13.26 195 -17 195 C-17 161.67 -17 128.34 -17 94 C-19.97 94 -22.94 94 -26 94 C-26 127.33 -26 160.66 -26 195 C-29.3 195 -32.6 195 -36 195 C-37.14826168 190.40695327 -37.17012675 186.36114383 -37.15625 181.65234375 C-37.15451782 180.66338608 -37.15278564 179.67442841 -37.15100098 178.65550232 C-37.04584834 163.13365077 -36.27661 147.62269382 -35.60931396 132.11712646 C-35.4248146 127.80544539 -35.24587758 123.49353339 -35.06640625 119.18164062 C-34.71623532 110.78753119 -34.36012444 102.39368829 -34 94 C-36.97 94 -39.94 94 -43 94 C-43.17378174 95.46679199 -43.34756348 96.93358398 -43.52661133 98.44482422 C-44.91306311 110.09692536 -46.33965556 121.742793 -47.82421875 133.3828125 C-48.28925553 137.06012552 -48.7533395 140.73755744 -49.21704102 144.41503906 C-49.533 146.90663885 -49.85205537 149.39784777 -50.17407227 151.88867188 C-55.08643034 181.96830343 -55.08643034 181.96830343 -45.25 209.75 C-42.623122 213.12741457 -39.84088187 216.29733747 -36.9375 219.4375 C-25.18772263 232.47744901 -19.76902711 248.60559822 -20.49609375 265.97265625 C-21.11413112 273.95339974 -23.2262253 281.68105494 -25.42749023 289.35205078 C-27.00552684 296.65072243 -27.15931675 304.0368338 -27.20532227 311.47680664 C-27.21522186 312.48273865 -27.22512146 313.48867065 -27.23532104 314.52508545 C-27.26668014 317.82008585 -27.29159134 321.11510063 -27.31640625 324.41015625 C-27.33699792 326.70658219 -27.35799495 329.00300452 -27.37937927 331.29942322 C-27.43437143 337.32120839 -27.48388082 343.34302646 -27.53222656 349.36486816 C-27.58260924 355.51866558 -27.63820749 361.67241568 -27.69335938 367.82617188 C-27.80066108 379.88407408 -27.90216734 391.94201751 -28 404 C-31.83462904 404.0183099 -35.66924665 404.02931112 -39.50390625 404.0390625 C-40.58208618 404.04429932 -41.66026611 404.04953613 -42.77111816 404.05493164 C-64.83278359 404.09696187 -88.01785558 399.5851849 -108 390 C-110.04355849 387.95644151 -109.15412564 383.65669703 -109.15771484 380.84692383 C-109.16279556 379.99144455 -109.16787628 379.13596527 -109.17311096 378.25456238 C-109.18384417 376.38790232 -109.19245267 374.52122916 -109.19923019 372.65455055 C-109.21100864 369.68912168 -109.2304654 366.72383914 -109.25234985 363.75846863 C-109.31395411 355.32348606 -109.36775068 346.88851313 -109.40136719 338.45336914 C-109.42246984 333.29735167 -109.45791156 328.14159224 -109.50212479 322.9857235 C-109.51617987 321.02960974 -109.5249832 319.07345023 -109.52817917 317.11728859 C-109.5482543 305.99224456 -110.02600255 295.79102513 -113 285 C-113.19823364 284.26999283 -113.39646729 283.53998566 -113.60070801 282.78785706 C-114.08183405 281.10064603 -114.60121597 279.4244592 -115.125 277.75 C-119.61399253 262.29552954 -119.36205934 245.10341361 -115.0625 229.625 C-112.26916094 226.06984119 -108.96745944 224.64949122 -104.9765625 222.6171875 C-89.01307826 213.94411338 -79.66938672 198.60143118 -74.609375 181.59375 C-68.75184882 159.20406279 -70.23489457 135.70111386 -81.0859375 115.22265625 C-89.58430444 100.9141813 -100.67433786 92.0759834 -116.44921875 86.859375 C-129.2107114 83.77078492 -141.04061821 86.44857396 -152.25 92.8125 C-153.85170649 93.8470951 -155.43627649 94.90884489 -157 96 C-157.68707031 96.47824219 -158.37414062 96.95648438 -159.08203125 97.44921875 C-171.97519619 107.54505007 -179.69073141 125.82158095 -181.77734375 141.6328125 C-182.23497269 146.49813068 -182.28958997 151.36603323 -182.3125 156.25 C-182.31805908 157.24354492 -182.32361816 158.23708984 -182.3293457 159.26074219 C-182.2359475 168.88155494 -180.80362933 177.95633501 -177.3125 186.9375 C-177.05122314 187.61570801 -176.78994629 188.29391602 -176.52075195 188.99267578 C-170.74378053 203.50601364 -162.46812857 214.88778792 -148.96069336 222.86987305 C-142.85437861 226.49428303 -138.77124164 230.06025038 -136.52734375 236.84423828 C-135.61992982 240.55371281 -135.47085881 244.13010693 -135.5 247.9375 C-135.50281982 248.7843335 -135.50563965 249.63116699 -135.50854492 250.50366211 C-135.79564513 262.33880801 -137.98065066 274.96083112 -141.73698425 286.2063446 C-144.47517615 294.8451206 -144.47679675 303.30286716 -144.51171875 312.26171875 C-144.52859722 313.90510878 -144.54675163 315.54848614 -144.56611633 317.19184875 C-144.61327903 321.48082521 -144.64330518 325.76975032 -144.66955566 330.05889893 C-144.69953304 334.45017635 -144.74600357 338.84127738 -144.79101562 343.23242188 C-144.87666411 351.82152721 -144.94417864 360.41064923 -145 369 C-155.69368657 363.83051964 -165.017295 355.66616307 -173.48925781 347.45947266 C-175.03925017 345.96208185 -176.60902163 344.48738082 -178.1796875 343.01171875 C-207.22961132 315.29852826 -225.70494602 277.24932171 -233 238 C-233.14808105 237.22672363 -233.29616211 236.45344727 -233.44873047 235.65673828 C-239.67056757 201.84182382 -236.64980106 166.32551366 -225 134 C-224.70222656 133.1735498 -224.40445313 132.34709961 -224.09765625 131.49560547 C-211.52763751 97.2866385 -190.10452798 65.31498024 -161 43 C-160.26394531 42.37480469 -159.52789062 41.74960938 -158.76953125 41.10546875 C-116.20108947 5.13110573 -54.56094406 -9.41720717 0 0 Z " fill="#F6F6F5" transform="translate(279,44)"/>
<path d="M0 0 C162.69 0 325.38 0 493 0 C493 161.7 493 323.4 493 490 C330.31 490 167.62 490 0 490 C0 328.3 0 166.6 0 0 Z M193.125 12.25 C192.47702454 12.40406311 191.82904907 12.55812622 191.16143799 12.71685791 C137.90178583 25.42400584 88.52060547 56.55088786 56 101 C55.15395808 102.12783846 54.30760264 103.25544181 53.4609375 104.3828125 C23.37791288 144.951688 7.50482094 194.4939346 7.625 244.875 C7.62487915 245.66627289 7.6247583 246.45754578 7.62463379 247.27279663 C7.65728135 262.44195397 9.11084982 277.08495881 12 292 C12.20834473 293.1139917 12.20834473 293.1139917 12.42089844 294.25048828 C13.33032424 298.92373362 14.59073744 303.45803976 16 308 C16.33273926 309.08007324 16.66547852 310.16014648 17.00830078 311.27294922 C28.07984801 346.75915888 44.36569703 379.21348243 70.38671875 406.26953125 C72.59772628 408.5796871 74.68898549 410.93248845 76.75 413.375 C80.18296381 417.32537223 84.00109936 420.63637622 88 424 C88.93585938 424.82371094 89.87171875 425.64742188 90.8359375 426.49609375 C138.80646012 468.48165054 201.41630927 487.22100046 264.54711914 483.53833008 C317.54677393 479.87293339 368.58359093 457.84849237 407.32421875 421.48828125 C409.56621418 419.40338915 411.8467535 417.40889794 414.1875 415.4375 C455.80588384 379.11755517 480.90828137 318.90281904 484.80371094 264.61914062 C486.85127633 226.86651705 482.70627577 190.14792401 468 155 C467.49364014 153.77941895 467.49364014 153.77941895 466.97705078 152.53417969 C455.35251056 124.83744907 438.67027994 100.73467452 418 79 C417.46213867 78.43345703 416.92427734 77.86691406 416.37011719 77.28320312 C408.6638925 69.22527898 400.68013375 61.91509806 391.71923828 55.27490234 C390.05028678 54.0372902 388.39822447 52.77946181 386.74609375 51.51953125 C359.44325388 31.03630152 327.25190641 17.9894746 294 11 C293.33071472 10.84306671 292.66142944 10.68613342 291.97186279 10.52444458 C286.75261812 9.30578523 281.5914985 8.4419877 276.26171875 7.890625 C275.04327522 7.76448822 275.04327522 7.76448822 273.80021667 7.63580322 C265.03796162 6.80345609 256.29724076 6.69759709 247.5012207 6.73925781 C244.80332202 6.75003667 242.10608269 6.73925037 239.40820312 6.7265625 C223.50589516 6.71096951 208.63288272 8.53144975 193.125 12.25 Z " fill="#F4F4F3" transform="translate(0,0)"/>
<path d="M0 0 C3.63 0 7.26 0 11 0 C10.9278125 0.90878906 10.855625 1.81757813 10.78125 2.75390625 C9.33503305 22.33809417 8.67520462 38.19955958 22 54 C23.34707333 55.48562944 24.70105756 56.9650273 26.0625 58.4375 C38.23995182 71.95208379 42.971941 87.83704694 42.30859375 105.66796875 C42.01727434 110.58838556 41.25144593 115.2288624 40 120 C33.4 120 26.8 120 20 120 C20 113.4 20 106.8 20 100 C13.4 100 6.8 100 0 100 C0 93.4 0 86.8 0 80 C6.6 80 13.2 80 20 80 C20 73.4 20 66.8 20 60 C13.4 60 6.8 60 0 60 C0 53.4 0 46.8 0 40 C-2.92875 40.144375 -5.8575 40.28875 -8.875 40.4375 C-10.25727783 40.50215454 -10.25727783 40.50215454 -11.66748047 40.56811523 C-12.75633545 40.6252771 -12.75633545 40.6252771 -13.8671875 40.68359375 C-14.98262939 40.73858032 -14.98262939 40.73858032 -16.12060547 40.79467773 C-18.08864312 40.89955865 -18.08864312 40.89955865 -20 42 C-18.50960548 36.98685481 -16.37056143 32.38945344 -14.12109375 27.68359375 C-12.76747303 24.69115245 -12.76747303 24.69115245 -12 20 C-8.04 20 -4.08 20 0 20 C0 13.4 0 6.8 0 0 Z " fill="#F0EFEE" transform="translate(216,205)"/>
<path d="M0 0 C6.6 0 13.2 0 20 0 C21.20535714 19.82142857 21.20535714 19.82142857 15.9375 26.25 C15.11894531 27.16652344 14.30039063 28.08304688 13.45703125 29.02734375 C1.40034091 43.61421394 0.56313566 63.96024036 0 82 C-0.33 81.34 -0.66 80.68 -1 80 C-7.27 80 -13.54 80 -20 80 C-20 73.4 -20 66.8 -20 60 C-26.6 60 -33.2 60 -40 60 C-40 66.6 -40 73.2 -40 80 C-42.97 80 -45.94 80 -49 80 C-47.02103474 66.01076282 -41.96349266 53.16314092 -37 40 C-31.39 40 -25.78 40 -20 40 C-20 33.4 -20 26.8 -20 20 C-13.4 20 -6.8 20 0 20 C0 13.4 0 6.8 0 0 Z " fill="#F0EFEF" transform="translate(96,125)"/>
<path d="M0 0 C5.94 0 11.88 0 18 0 C34.12593327 38.70223985 39.29806757 81.82284363 30 123 C29.67 122.01 29.34 121.02 29 120 C26.03 120 23.06 120 20 120 C20 113.4 20 106.8 20 100 C13.4 100 6.8 100 0 100 C0 93.4 0 86.8 0 80 C6.6 80 13.2 80 20 80 C20 73.4 20 66.8 20 60 C13.4 60 6.8 60 0 60 C0 53.4 0 46.8 0 40 C6.6 40 13.2 40 20 40 C20 33.4 20 26.8 20 20 C13.4 20 6.8 20 0 20 C0 13.4 0 6.8 0 0 Z " fill="#F3F2F1" transform="translate(416,165)"/>
<path d="M0 0 C6.6 0 13.2 0 20 0 C20 6.6 20 13.2 20 20 C26.6 20 33.2 20 40 20 C40 26.6 40 33.2 40 40 C46.6 40 53.2 40 60 40 C60 46.6 60 53.2 60 60 C66.6 60 73.2 60 80 60 C80 66.6 80 73.2 80 80 C67.7337151 81.26556908 67.7337151 81.26556908 63 80 C59.12851829 76.78321626 56.84157783 73.08216891 54.21875 68.83447266 C52.18465111 65.77273006 49.71288181 63.15964571 47.1875 60.5 C46.68549072 59.96624756 46.18348145 59.43249512 45.66625977 58.88256836 C44.11885627 57.24719115 42.56040061 55.62297185 41 54 C40.48034668 53.45311523 39.96069336 52.90623047 39.42529297 52.34277344 C33.62241096 46.25573428 27.67526113 40.51838882 21.0625 35.3125 C20.49144531 34.85721924 19.92039062 34.40193848 19.33203125 33.93286133 C16.33407719 31.60163275 13.35348498 29.59132115 10.00390625 27.796875 C2.26689569 23.45720869 2.26689569 23.45720869 0 20 C-1.68695465 13.30284483 -0.63840588 6.84006303 0 0 Z " fill="#FEFEFE" transform="translate(376,25)"/>
<path d="M0 0 C5.28 0 10.56 0 16 0 C16 6.6 16 13.2 16 20 C22.6 20 29.2 20 36 20 C36 26.6 36 33.2 36 40 C42.6 40 49.2 40 56 40 C56 46.6 56 53.2 56 60 C40.94959825 60.94065011 40.94959825 60.94065011 36.546875 58.81640625 C34.38248759 56.70377593 32.74514932 54.47512424 31 52 C30.00379253 50.74359931 29.00055152 49.49275891 27.9921875 48.24609375 C0 13.24042478 0 13.24042478 0 0 Z " fill="#EFEFEE" transform="translate(60,325)"/>
<path d="M0 0 C4.95 0 9.9 0 15 0 C15 33.99 15 67.98 15 103 C-3.80438122 103 -20.98455006 102.74090788 -39 98 C-40 97 -40 97 -40.09765625 93.18359375 C-40.09191138 91.60152953 -40.07889593 90.01948969 -40.0625 88.4375 C-40.041875 85.653125 -40.02125 82.86875 -40 80 C-33.4 80 -26.8 80 -20 80 C-20 86.6 -20 93.2 -20 100 C-13.4 100 -6.8 100 0 100 C0 93.4 0 86.8 0 80 C4.62 80 9.24 80 14 80 C14 60.2 14 40.4 14 20 C9.38 20 4.76 20 0 20 C0 13.4 0 6.8 0 0 Z " fill="#F0EFEE" transform="translate(236,345)"/>
<path d="M0 0 C7.66116808 -0.95764601 7.66116808 -0.95764601 12 0 C14.5677759 2.46133959 16.21138871 5.03823173 18.09375 8.05078125 C22.52559921 14.90743321 28.85103139 18.99562401 35.8125 23 C42.79770415 27.132437 44.47931058 30.43793173 47 38 C47.09232973 39.53040877 47.13067608 41.06446636 47.1328125 42.59765625 C47.13474609 43.92313477 47.13474609 43.92313477 47.13671875 45.27539062 C47.13285156 46.19513672 47.12898438 47.11488281 47.125 48.0625 C47.13080078 49.44791992 47.13080078 49.44791992 47.13671875 50.86132812 C47.13542969 51.74369141 47.13414062 52.62605469 47.1328125 53.53515625 C47.13168457 54.343479 47.13055664 55.15180176 47.12939453 55.98461914 C47 58 47 58 46 60 C44.02 60 42.04 60 40 60 C40 53.4 40 46.8 40 40 C33.4 40 26.8 40 20 40 C20 33.4 20 26.8 20 20 C13.4 20 6.8 20 0 20 C0 13.4 0 6.8 0 0 Z " fill="#F0EFEE" transform="translate(96,245)"/>
<path d="M0 0 C2.97 0 5.94 0 9 0 C9 31.02 9 62.04 9 94 C6.03 94 3.06 94 0 94 C0 62.98 0 31.96 0 0 Z " fill="#F0F0F0" transform="translate(263,145)"/>
<path d="M0 0 C6.6 0 13.2 0 20 0 C20 6.27 20 12.54 20 19 C17.73125 20.11375 15.4625 21.2275 13.125 22.375 C6.00375383 25.90501815 -0.95975384 29.68167656 -7.88232422 33.58544922 C-8.59404785 33.98650879 -9.30577148 34.38756836 -10.0390625 34.80078125 C-10.65990723 35.15309814 -11.28075195 35.50541504 -11.92041016 35.8684082 C-14.57741562 37.31419598 -17.29445306 38.64722653 -20 40 C-20 33.4 -20 26.8 -20 20 C-13.4 20 -6.8 20 0 20 C0 13.4 0 6.8 0 0 Z " fill="#F0EFEF" transform="translate(136,5)"/>
<path d="M0 0 C3.47758189 0.86939547 5.45471433 1.69513498 8.45703125 3.4765625 C9.31594971 3.97961914 10.17486816 4.48267578 11.05981445 5.00097656 C11.96820068 5.5369043 12.87658691 6.07283203 13.8125 6.625 C22.369275 11.605267 30.95474687 15.9798875 40 20 C40 26.27 40 32.54 40 39 C33.4 39 26.8 39 20 39 C20 32.4 20 25.8 20 19 C13.4 19 6.8 19 0 19 C0 12.73 0 6.46 0 0 Z " fill="#FEFEFD" transform="translate(116,446)"/>
<path d="M0 0 C6.6 0 13.2 0 20 0 C20 6.6 20 13.2 20 20 C26.6 20 33.2 20 40 20 C40 26.27 40 32.54 40 39 C36.4691754 37.58767016 33.46113855 36.23178907 30.19140625 34.390625 C29.28535645 33.88563477 28.37930664 33.38064453 27.44580078 32.86035156 C26.49431152 32.32893555 25.54282227 31.79751953 24.5625 31.25 C16.19269934 26.62025079 7.87773559 22.55109424 -1 19 C-0.67 12.73 -0.34 6.46 0 0 Z " fill="#F0EFEE" transform="translate(336,5)"/>
<path d="M0 0 C5.61 0 11.22 0 17 0 C14.07505011 9.65913686 9.40405727 17.97133423 4.34423828 26.66113281 C3.19096007 28.66774474 2.10295052 30.69357557 1.02734375 32.7421875 C-0.79090526 35.81922429 -2.1104659 37.88950696 -5 40 C-10.47869048 40.93361358 -14.28859133 40.56094192 -20 40 C-20 33.4 -20 26.8 -20 20 C-13.4 20 -6.8 20 0 20 C0 13.4 0 6.8 0 0 Z " fill="#EFEFEE" transform="translate(416,325)"/>
<path d="M0 0 C0.33 0 0.66 0 1 0 C1.01458252 0.88034912 1.02916504 1.76069824 1.04418945 2.66772461 C1.530392 28.94843279 4.85032419 50.15651882 15.0378418 74.47241211 C16 77 16 77 16 79 C15.34 79 14.68 79 14 79 C14 78.34 14 77.68 14 77 C13.12794922 76.63648438 13.12794922 76.63648438 12.23828125 76.265625 C2.42805858 70.71848338 -3.54531645 56.06921256 -6.9375 45.75 C-10.6490951 29.99891831 -7.84692991 14.01237483 0 0 Z " fill="#F0EDE7" transform="translate(117,175)"/>
<path d="M0 0 C5.61 0 11.22 0 17 0 C14.37950604 4.84394338 11.67905169 9.56294532 8.6875 14.1875 C5.92785121 18.48095797 3.29578968 22.82774454 0.75 27.25 C0.10546875 28.36890625 -0.5390625 29.4878125 -1.203125 30.640625 C-3.02313932 34.04326047 -4.53391781 37.43434331 -6 41 C-12.93 40.505 -12.93 40.505 -20 40 C-20 33.4 -20 26.8 -20 20 C-13.4 20 -6.8 20 0 20 C0 13.4 0 6.8 0 0 Z " fill="#F0EFEE" transform="translate(36,105)"/>
<path d="M0 0 C1.78765424 3.57530849 3.03915319 6.9186754 4.27734375 10.70703125 C4.48935928 11.35065109 4.70137482 11.99427094 4.91981506 12.65739441 C5.82147678 15.39486067 6.71603908 18.13463213 7.61108398 20.87426758 C8.26812152 22.88186893 8.9289048 24.88821157 9.58984375 26.89453125 C9.98034912 28.08925049 10.37085449 29.28396973 10.77319336 30.51489258 C12.03447049 34.09792363 13.46633947 37.52671813 15 41 C10.38 41 5.76 41 1 41 C1 34.4 1 27.8 1 21 C-4.28 21 -9.56 21 -15 21 C-15 14.4 -15 7.8 -15 1 C-10.05 0.67 -5.1 0.34 0 0 Z " fill="#F0EFED" transform="translate(15,304)"/>
<path d="M0 0 C4.29 0 8.58 0 13 0 C12.2408005 3.79599748 11.41655599 6.80053657 10.0390625 10.3515625 C9.64976563 11.36863281 9.26046875 12.38570312 8.859375 13.43359375 C8.04536039 15.53818216 7.23028009 17.64235874 6.4140625 19.74609375 C3.85928499 26.42717309 1.77558175 33.06950348 0 40 C-5.28 40 -10.56 40 -16 40 C-16 33.4 -16 26.8 -16 20 C-10.72 20 -5.44 20 0 20 C0 13.4 0 6.8 0 0 Z " fill="#FEFEFD" transform="translate(16,145)"/>
<path d="M0 0 C2.97 0 5.94 0 9 0 C9 17.82 9 35.64 9 54 C5.7 54 2.4 54 -1 54 C-1.80600813 50.77596747 -2.12826755 48.5856197 -2.1328125 45.3515625 C-2.13482666 44.43874512 -2.13684082 43.52592773 -2.13891602 42.58544922 C-2.13432373 41.60850098 -2.12973145 40.63155273 -2.125 39.625 C-2.12234131 38.6158252 -2.11968262 37.60665039 -2.11694336 36.56689453 C-2.07256107 29.32977223 -1.87866006 22.10517779 -1.5625 14.875 C-1.52334473 13.95799316 -1.48418945 13.04098633 -1.44384766 12.09619141 C-1.2421643 7.97520544 -0.99325073 4.02308277 0 0 Z " fill="#FFFFFF" transform="translate(244,185)"/>
<path d="M0 0 C5.28 0 10.56 0 16 0 C16 6.6 16 13.2 16 20 C22.6 20 29.2 20 36 20 C36 26.6 36 33.2 36 40 C29.565 40.495 29.565 40.495 23 41 C22.55011719 40.05382812 22.10023438 39.10765625 21.63671875 38.1328125 C16.75182272 28.03089921 11.18026057 18.51526576 5.23242188 9.00732422 C3.41391405 6.04540438 1.70368652 3.02921832 0 0 Z " fill="#F0EFEE" transform="translate(440,105)"/>
<path d="M0 0 C1.39456867 0.00574201 2.78910972 0.01875397 4.18359375 0.03515625 C6.63796875 0.05578125 9.09234375 0.07640625 11.62109375 0.09765625 C11.62109375 6.69765625 11.62109375 13.29765625 11.62109375 20.09765625 C6.01109375 20.09765625 0.40109375 20.09765625 -5.37890625 20.09765625 C-5.37890625 26.69765625 -5.37890625 33.29765625 -5.37890625 40.09765625 C-9.33890625 40.09765625 -13.29890625 40.09765625 -17.37890625 40.09765625 C-16.66332773 36.51976365 -15.97910072 33.78240371 -14.671875 30.47265625 C-14.33422119 29.60672852 -13.99656738 28.74080078 -13.64868164 27.84863281 C-13.29153076 26.94081055 -12.93437988 26.03298828 -12.56640625 25.09765625 C-9.76847906 17.89497267 -7.19517097 10.73302162 -5.0703125 3.30078125 C-3.97250633 -0.19731299 -3.90906145 0.11297865 0 0 Z " fill="#F0EFED" transform="translate(481.37890625,304.90234375)"/>
<path d="M0 0 C5.61 0 11.22 0 17 0 C17 6.6 17 13.2 17 20 C10.4 20 3.8 20 -3 20 C-3 26.6 -3 33.2 -3 40 C-5.97 40 -8.94 40 -12 40 C-10.02103474 26.01076282 -4.96349266 13.16314092 0 0 Z " fill="#EFEFED" transform="translate(59,165)"/>
<path d="M0 0 C3.96 0 7.92 0 12 0 C12 6.6 12 13.2 12 20 C17.61 20 23.22 20 29 20 C29 26.6 29 33.2 29 40 C23.72 40 18.44 40 13 40 C12.64808594 38.75347656 12.29617188 37.50695312 11.93359375 36.22265625 C9.18122655 26.66860302 6.18238545 17.4077669 2.18530273 8.29516602 C0.90285048 5.34983326 0 3.25201717 0 0 Z " fill="#FEFEFD" transform="translate(464,145)"/>
<path d="M0 0 C2.64 0 5.28 0 8 0 C8 6.6 8 13.2 8 20 C14.6 20 21.2 20 28 20 C28 26.6 28 33.2 28 40 C22.39 40 16.78 40 11 40 C-0.38881647 10.28030757 -0.38881647 10.28030757 0 0 Z " fill="#FEFEFD" transform="translate(48,285)"/>
<path d="M0 0 C6.6 0 13.2 0 20 0 C20 4.29 20 8.58 20 13 C19.01 13 18.02 13 17 13 C17 46.33 17 79.66 17 114 C16.67 114 16.34 114 16 114 C16 82.98 16 51.96 16 20 C13.03 20 10.06 20 7 20 C7 51.02 7 82.04 7 114 C6.67 114 6.34 114 6 114 C6 80.67 6 47.34 6 13 C4.02 13 2.04 13 0 13 C0 8.71 0 4.42 0 0 Z " fill="#F0E3C9" transform="translate(256,125)"/>
<path d="M0 0 C4.19514597 -0.02507213 8.39025006 -0.04303239 12.58544922 -0.05493164 C14.00700644 -0.05990212 15.42855872 -0.06668084 16.85009766 -0.07543945 C36.48434093 -0.1932172 36.48434093 -0.1932172 43 1 C45 3 45 3 45.22705078 5.06298828 C45.21657715 5.89040527 45.20610352 6.71782227 45.1953125 7.5703125 C45.19031738 8.37742676 45.18532227 9.18454102 45.18017578 10.01611328 C45.16196777 11.0420459 45.14375977 12.06797852 45.125 13.125 C45.08375 16.38375 45.0425 19.6425 45 23 C38.4 23 31.8 23 25 23 C25 16.4 25 9.8 25 3 C18.4 3 11.8 3 5 3 C5 2.34 5 1.68 5 1 C3.35 1 1.7 1 0 1 C0 0.67 0 0.34 0 0 Z " fill="#F0EFEF" transform="translate(231,42)"/>
<path d="M0 0 C1.98 0 3.96 0 6 0 C5.50508586 7.67543569 3.96229359 14.82660634 2 22.25 C1.4561999 24.33798719 0.91446664 26.42651399 0.375 28.515625 C0.01535156 29.88122559 0.01535156 29.88122559 -0.3515625 31.27441406 C-1.03664257 34.1540202 -1.51338271 37.08029627 -2 40 C-7.94 40 -13.88 40 -20 40 C-20 33.4 -20 26.8 -20 20 C-13.4 20 -6.8 20 0 20 C0 13.4 0 6.8 0 0 Z " fill="#FEFEFE" transform="translate(136,305)"/>
<path d="M0 0 C2.31 0 4.62 0 7 0 C6.73445313 0.73863281 6.46890625 1.47726563 6.1953125 2.23828125 C1.57563077 15.50722112 0.54873814 28.0649393 0 42 C-0.33 41.34 -0.66 40.68 -1 40 C-7.27 40 -13.54 40 -20 40 C-20 33.4 -20 26.8 -20 20 C-13.4 20 -6.8 20 0 20 C0 13.4 0 6.8 0 0 Z " fill="#F0EFED" transform="translate(96,165)"/>
<path d="M0 0 C1.98 0 3.96 0 6 0 C6 6.6 6 13.2 6 20 C12.6 20 19.2 20 26 20 C26 25.61 26 31.22 26 37 C18.57935415 35.85836218 5.59491786 33.59491786 0 28 C-0.08767112 25.92737924 -0.10695873 23.85179706 -0.09765625 21.77734375 C-0.09443359 20.51728516 -0.09121094 19.25722656 -0.08789062 17.95898438 C-0.07953403 16.61848891 -0.07106907 15.27799412 -0.0625 13.9375 C-0.0574866 12.59310058 -0.05292342 11.2486994 -0.04882812 9.90429688 C-0.03699488 6.60282059 -0.02050971 3.30143197 0 0 Z " fill="#FEFEFC" transform="translate(170,405)"/>
<path d="M0 0 C5.94 0 11.88 0 18 0 C18 22.44 18 44.88 18 68 C17.34 67.67 16.68 67.34 16 67 C16.33 51.49 16.66 35.98 17 20 C11.39 20 5.78 20 0 20 C0 13.4 0 6.8 0 0 Z " fill="#F0EADF" transform="translate(116,345)"/>
<path d="M0 0 C6.6 0 13.2 0 20 0 C20 6.6 20 13.2 20 20 C13.4 20 6.8 20 0 20 C0 13.4 0 6.8 0 0 Z " fill="#FFFFFF" transform="translate(456,465)"/>
<path d="M0 0 C6.6 0 13.2 0 20 0 C20 6.6 20 13.2 20 20 C13.4 20 6.8 20 0 20 C0 13.4 0 6.8 0 0 Z " fill="#FFFFFF" transform="translate(416,465)"/>
<path d="M0 0 C6.6 0 13.2 0 20 0 C20 6.6 20 13.2 20 20 C13.4 20 6.8 20 0 20 C0 13.4 0 6.8 0 0 Z " fill="#FFFFFF" transform="translate(376,465)"/>
<path d="M0 0 C6.6 0 13.2 0 20 0 C20 6.6 20 13.2 20 20 C13.4 20 6.8 20 0 20 C0 13.4 0 6.8 0 0 Z " fill="#F0F0F0" transform="translate(356,465)"/>
<path d="M0 0 C6.6 0 13.2 0 20 0 C20 6.6 20 13.2 20 20 C13.4 20 6.8 20 0 20 C0 13.4 0 6.8 0 0 Z " fill="#FFFFFF" transform="translate(96,465)"/>
<path d="M0 0 C6.6 0 13.2 0 20 0 C20 6.6 20 13.2 20 20 C13.4 20 6.8 20 0 20 C0 13.4 0 6.8 0 0 Z " fill="#FFFFFF" transform="translate(56,465)"/>
<path d="M0 0 C6.6 0 13.2 0 20 0 C20 6.6 20 13.2 20 20 C13.4 20 6.8 20 0 20 C0 13.4 0 6.8 0 0 Z " fill="#FFFFFF" transform="translate(16,465)"/>
<path d="M0 0 C6.6 0 13.2 0 20 0 C20 6.6 20 13.2 20 20 C13.4 20 6.8 20 0 20 C0 13.4 0 6.8 0 0 Z " fill="#FFFFFF" transform="translate(436,445)"/>
<path d="M0 0 C6.6 0 13.2 0 20 0 C20 6.6 20 13.2 20 20 C13.4 20 6.8 20 0 20 C0 13.4 0 6.8 0 0 Z " fill="#FFFFFF" transform="translate(396,445)"/>
<path d="M0 0 C6.6 0 13.2 0 20 0 C20 6.6 20 13.2 20 20 C13.4 20 6.8 20 0 20 C0 13.4 0 6.8 0 0 Z " fill="#FFFFFF" transform="translate(76,445)"/>
<path d="M0 0 C6.6 0 13.2 0 20 0 C20 6.6 20 13.2 20 20 C13.4 20 6.8 20 0 20 C0 13.4 0 6.8 0 0 Z " fill="#F0F0F0" transform="translate(56,445)"/>
<path d="M0 0 C6.6 0 13.2 0 20 0 C20 6.6 20 13.2 20 20 C13.4 20 6.8 20 0 20 C0 13.4 0 6.8 0 0 Z " fill="#FFFFFF" transform="translate(36,445)"/>
<path d="M0 0 C6.6 0 13.2 0 20 0 C20 6.6 20 13.2 20 20 C13.4 20 6.8 20 0 20 C0 13.4 0 6.8 0 0 Z " fill="#F0F0F0" transform="translate(16,445)"/>
<path d="M0 0 C6.6 0 13.2 0 20 0 C20 6.6 20 13.2 20 20 C13.4 20 6.8 20 0 20 C0 13.4 0 6.8 0 0 Z " fill="#FFFFFF" transform="translate(456,425)"/>
<path d="M0 0 C6.6 0 13.2 0 20 0 C20 6.6 20 13.2 20 20 C13.4 20 6.8 20 0 20 C0 13.4 0 6.8 0 0 Z " fill="#F0F0F0" transform="translate(436,425)"/>
<path d="M0 0 C6.6 0 13.2 0 20 0 C20 6.6 20 13.2 20 20 C13.4 20 6.8 20 0 20 C0 13.4 0 6.8 0 0 Z " fill="#FFFFFF" transform="translate(416,425)"/>
<path d="M0 0 C6.6 0 13.2 0 20 0 C20 6.6 20 13.2 20 20 C13.4 20 6.8 20 0 20 C0 13.4 0 6.8 0 0 Z " fill="#FFFFFF" transform="translate(216,425)"/>
<path d="M0 0 C6.6 0 13.2 0 20 0 C20 6.6 20 13.2 20 20 C13.4 20 6.8 20 0 20 C0 13.4 0 6.8 0 0 Z " fill="#FFFFFF" transform="translate(56,425)"/>
<path d="M0 0 C6.6 0 13.2 0 20 0 C20 6.6 20 13.2 20 20 C13.4 20 6.8 20 0 20 C0 13.4 0 6.8 0 0 Z " fill="#F0F0F0" transform="translate(36,425)"/>
<path d="M0 0 C6.6 0 13.2 0 20 0 C20 6.6 20 13.2 20 20 C13.4 20 6.8 20 0 20 C0 13.4 0 6.8 0 0 Z " fill="#FFFFFF" transform="translate(16,425)"/>
<path d="M0 0 C6.6 0 13.2 0 20 0 C20 6.6 20 13.2 20 20 C13.4 20 6.8 20 0 20 C0 13.4 0 6.8 0 0 Z " fill="#FFFFFF" transform="translate(436,405)"/>
<path d="M0 0 C6.6 0 13.2 0 20 0 C20 6.6 20 13.2 20 20 C13.4 20 6.8 20 0 20 C0 13.4 0 6.8 0 0 Z " fill="#FFFFFF" transform="translate(316,405)"/>
<path d="M0 0 C6.6 0 13.2 0 20 0 C20 6.6 20 13.2 20 20 C13.4 20 6.8 20 0 20 C0 13.4 0 6.8 0 0 Z " fill="#F0F0F0" transform="translate(296,405)"/>
<path d="M0 0 C6.6 0 13.2 0 20 0 C20 6.6 20 13.2 20 20 C13.4 20 6.8 20 0 20 C0 13.4 0 6.8 0 0 Z " fill="#FFFFFF" transform="translate(196,405)"/>
<path d="M0 0 C6.6 0 13.2 0 20 0 C20 6.6 20 13.2 20 20 C13.4 20 6.8 20 0 20 C0 13.4 0 6.8 0 0 Z " fill="#FFFFFF" transform="translate(36,405)"/>
<path d="M0 0 C6.6 0 13.2 0 20 0 C20 6.6 20 13.2 20 20 C13.4 20 6.8 20 0 20 C0 13.4 0 6.8 0 0 Z " fill="#F0F0F0" transform="translate(16,405)"/>
<path d="M0 0 C6.6 0 13.2 0 20 0 C20 6.6 20 13.2 20 20 C13.4 20 6.8 20 0 20 C0 13.4 0 6.8 0 0 Z " fill="#FFFFFF" transform="translate(456,385)"/>
<path d="M0 0 C6.6 0 13.2 0 20 0 C20 6.6 20 13.2 20 20 C13.4 20 6.8 20 0 20 C0 13.4 0 6.8 0 0 Z " fill="#FFFFFF" transform="translate(296,385)"/>
<path d="M0 0 C6.6 0 13.2 0 20 0 C20 6.6 20 13.2 20 20 C13.4 20 6.8 20 0 20 C0 13.4 0 6.8 0 0 Z " fill="#FFFFFF" transform="translate(216,385)"/>
<path d="M0 0 C6.6 0 13.2 0 20 0 C20 6.6 20 13.2 20 20 C13.4 20 6.8 20 0 20 C0 13.4 0 6.8 0 0 Z " fill="#FFFFFF" transform="translate(176,385)"/>
<path d="M0 0 C6.6 0 13.2 0 20 0 C20 6.6 20 13.2 20 20 C13.4 20 6.8 20 0 20 C0 13.4 0 6.8 0 0 Z " fill="#FFFFFF" transform="translate(16,385)"/>
<path d="M0 0 C6.6 0 13.2 0 20 0 C20 6.6 20 13.2 20 20 C13.4 20 6.8 20 0 20 C0 13.4 0 6.8 0 0 Z " fill="#F0F0F0" transform="translate(456,365)"/>
<path d="M0 0 C6.6 0 13.2 0 20 0 C20 6.6 20 13.2 20 20 C13.4 20 6.8 20 0 20 C0 13.4 0 6.8 0 0 Z " fill="#FFFFFF" transform="translate(316,365)"/>
<path d="M0 0 C6.6 0 13.2 0 20 0 C20 6.6 20 13.2 20 20 C13.4 20 6.8 20 0 20 C0 13.4 0 6.8 0 0 Z " fill="#F0F0F0" transform="translate(296,365)"/>
<path d="M0 0 C6.6 0 13.2 0 20 0 C20 6.6 20 13.2 20 20 C13.4 20 6.8 20 0 20 C0 13.4 0 6.8 0 0 Z " fill="#FFFFFF" transform="translate(196,365)"/>
<path d="M0 0 C6.6 0 13.2 0 20 0 C20 6.6 20 13.2 20 20 C13.4 20 6.8 20 0 20 C0 13.4 0 6.8 0 0 Z " fill="#F0F0F0" transform="translate(16,365)"/>
<path d="M0 0 C6.6 0 13.2 0 20 0 C20 6.6 20 13.2 20 20 C13.4 20 6.8 20 0 20 C0 13.4 0 6.8 0 0 Z " fill="#FFFFFF" transform="translate(296,345)"/>
<path d="M0 0 C6.6 0 13.2 0 20 0 C20 6.6 20 13.2 20 20 C13.4 20 6.8 20 0 20 C0 13.4 0 6.8 0 0 Z " fill="#FFFFFF" transform="translate(216,345)"/>
<path d="M0 0 C6.6 0 13.2 0 20 0 C20 6.6 20 13.2 20 20 C13.4 20 6.8 20 0 20 C0 13.4 0 6.8 0 0 Z " fill="#F0F0F0" transform="translate(196,345)"/>
<path d="M0 0 C6.6 0 13.2 0 20 0 C20 6.6 20 13.2 20 20 C13.4 20 6.8 20 0 20 C0 13.4 0 6.8 0 0 Z " fill="#FFFFFF" transform="translate(176,345)"/>
<path d="M0 0 C6.6 0 13.2 0 20 0 C20 6.6 20 13.2 20 20 C13.4 20 6.8 20 0 20 C0 13.4 0 6.8 0 0 Z " fill="#FFFFFF" transform="translate(96,345)"/>
<path d="M0 0 C6.6 0 13.2 0 20 0 C20 6.6 20 13.2 20 20 C13.4 20 6.8 20 0 20 C0 13.4 0 6.8 0 0 Z " fill="#FFFFFF" transform="translate(396,325)"/>
<path d="M0 0 C6.6 0 13.2 0 20 0 C20 6.6 20 13.2 20 20 C13.4 20 6.8 20 0 20 C0 13.4 0 6.8 0 0 Z " fill="#F0F0F0" transform="translate(296,325)"/>
<path d="M0 0 C6.6 0 13.2 0 20 0 C20 6.6 20 13.2 20 20 C13.4 20 6.8 20 0 20 C0 13.4 0 6.8 0 0 Z " fill="#FFFFFF" transform="translate(196,325)"/>
<path d="M0 0 C6.6 0 13.2 0 20 0 C20 6.6 20 13.2 20 20 C13.4 20 6.8 20 0 20 C0 13.4 0 6.8 0 0 Z " fill="#F0F0F0" transform="translate(96,325)"/>
<path d="M0 0 C6.6 0 13.2 0 20 0 C20 6.6 20 13.2 20 20 C13.4 20 6.8 20 0 20 C0 13.4 0 6.8 0 0 Z " fill="#FFFFFF" transform="translate(76,325)"/>
<path d="M0 0 C6.6 0 13.2 0 20 0 C20 6.6 20 13.2 20 20 C13.4 20 6.8 20 0 20 C0 13.4 0 6.8 0 0 Z " fill="#F0F0F0" transform="translate(396,305)"/>
<path d="M0 0 C6.6 0 13.2 0 20 0 C20 6.6 20 13.2 20 20 C13.4 20 6.8 20 0 20 C0 13.4 0 6.8 0 0 Z " fill="#FFFFFF" transform="translate(296,305)"/>
<path d="M0 0 C6.6 0 13.2 0 20 0 C20 6.6 20 13.2 20 20 C13.4 20 6.8 20 0 20 C0 13.4 0 6.8 0 0 Z " fill="#FFFFFF" transform="translate(216,305)"/>
<path d="M0 0 C6.6 0 13.2 0 20 0 C20 6.6 20 13.2 20 20 C13.4 20 6.8 20 0 20 C0 13.4 0 6.8 0 0 Z " fill="#F0F0F0" transform="translate(196,305)"/>
<path d="M0 0 C6.6 0 13.2 0 20 0 C20 6.6 20 13.2 20 20 C13.4 20 6.8 20 0 20 C0 13.4 0 6.8 0 0 Z " fill="#FFFFFF" transform="translate(176,305)"/>
<path d="M0 0 C6.6 0 13.2 0 20 0 C20 6.6 20 13.2 20 20 C13.4 20 6.8 20 0 20 C0 13.4 0 6.8 0 0 Z " fill="#F0F0F0" transform="translate(116,305)"/>
<path d="M0 0 C6.6 0 13.2 0 20 0 C20 6.6 20 13.2 20 20 C13.4 20 6.8 20 0 20 C0 13.4 0 6.8 0 0 Z " fill="#FFFFFF" transform="translate(96,305)"/>
<path d="M0 0 C6.6 0 13.2 0 20 0 C20 6.6 20 13.2 20 20 C13.4 20 6.8 20 0 20 C0 13.4 0 6.8 0 0 Z " fill="#F0F0F0" transform="translate(76,305)"/>
<path d="M0 0 C6.6 0 13.2 0 20 0 C20 6.6 20 13.2 20 20 C13.4 20 6.8 20 0 20 C0 13.4 0 6.8 0 0 Z " fill="#F0F0F0" transform="translate(416,285)"/>
<path d="M0 0 C6.6 0 13.2 0 20 0 C20 6.6 20 13.2 20 20 C13.4 20 6.8 20 0 20 C0 13.4 0 6.8 0 0 Z " fill="#FFFFFF" transform="translate(396,285)"/>
<path d="M0 0 C6.6 0 13.2 0 20 0 C20 6.6 20 13.2 20 20 C13.4 20 6.8 20 0 20 C0 13.4 0 6.8 0 0 Z " fill="#FFFFFF" transform="translate(196,285)"/>
<path d="M0 0 C6.6 0 13.2 0 20 0 C20 6.6 20 13.2 20 20 C13.4 20 6.8 20 0 20 C0 13.4 0 6.8 0 0 Z " fill="#F0F0F0" transform="translate(176,285)"/>
<path d="M0 0 C6.6 0 13.2 0 20 0 C20 6.6 20 13.2 20 20 C13.4 20 6.8 20 0 20 C0 13.4 0 6.8 0 0 Z " fill="#FFFFFF" transform="translate(116,285)"/>
<path d="M0 0 C6.6 0 13.2 0 20 0 C20 6.6 20 13.2 20 20 C13.4 20 6.8 20 0 20 C0 13.4 0 6.8 0 0 Z " fill="#F0F0F0" transform="translate(96,285)"/>
<path d="M0 0 C6.6 0 13.2 0 20 0 C20 6.6 20 13.2 20 20 C13.4 20 6.8 20 0 20 C0 13.4 0 6.8 0 0 Z " fill="#FFFFFF" transform="translate(76,285)"/>
<path d="M0 0 C6.6 0 13.2 0 20 0 C20 6.6 20 13.2 20 20 C13.4 20 6.8 20 0 20 C0 13.4 0 6.8 0 0 Z " fill="#F0F0F0" transform="translate(56,285)"/>
<path d="M0 0 C6.6 0 13.2 0 20 0 C20 6.6 20 13.2 20 20 C13.4 20 6.8 20 0 20 C0 13.4 0 6.8 0 0 Z " fill="#FFFFFF" transform="translate(416,265)"/>
<path d="M0 0 C6.6 0 13.2 0 20 0 C20 6.6 20 13.2 20 20 C13.4 20 6.8 20 0 20 C0 13.4 0 6.8 0 0 Z " fill="#F0F0F0" transform="translate(396,265)"/>
<path d="M0 0 C6.6 0 13.2 0 20 0 C20 6.6 20 13.2 20 20 C13.4 20 6.8 20 0 20 C0 13.4 0 6.8 0 0 Z " fill="#FFFFFF" transform="translate(296,265)"/>
<path d="M0 0 C6.6 0 13.2 0 20 0 C20 6.6 20 13.2 20 20 C13.4 20 6.8 20 0 20 C0 13.4 0 6.8 0 0 Z " fill="#FFFFFF" transform="translate(216,265)"/>
<path d="M0 0 C6.6 0 13.2 0 20 0 C20 6.6 20 13.2 20 20 C13.4 20 6.8 20 0 20 C0 13.4 0 6.8 0 0 Z " fill="#F0F0F0" transform="translate(196,265)"/>
<path d="M0 0 C6.6 0 13.2 0 20 0 C20 6.6 20 13.2 20 20 C13.4 20 6.8 20 0 20 C0 13.4 0 6.8 0 0 Z " fill="#FFFFFF" transform="translate(96,265)"/>
<path d="M0 0 C6.6 0 13.2 0 20 0 C20 6.6 20 13.2 20 20 C13.4 20 6.8 20 0 20 C0 13.4 0 6.8 0 0 Z " fill="#F0F0F0" transform="translate(76,265)"/>
<path d="M0 0 C6.6 0 13.2 0 20 0 C20 6.6 20 13.2 20 20 C13.4 20 6.8 20 0 20 C0 13.4 0 6.8 0 0 Z " fill="#FFFFFF" transform="translate(56,265)"/>
<path d="M0 0 C6.6 0 13.2 0 20 0 C20 6.6 20 13.2 20 20 C13.4 20 6.8 20 0 20 C0 13.4 0 6.8 0 0 Z " fill="#F0F0F0" transform="translate(416,245)"/>
<path d="M0 0 C6.6 0 13.2 0 20 0 C20 6.6 20 13.2 20 20 C13.4 20 6.8 20 0 20 C0 13.4 0 6.8 0 0 Z " fill="#FFFFFF" transform="translate(396,245)"/>
<path d="M0 0 C6.6 0 13.2 0 20 0 C20 6.6 20 13.2 20 20 C13.4 20 6.8 20 0 20 C0 13.4 0 6.8 0 0 Z " fill="#FFFFFF" transform="translate(76,245)"/>
<path d="M0 0 C6.6 0 13.2 0 20 0 C20 6.6 20 13.2 20 20 C13.4 20 6.8 20 0 20 C0 13.4 0 6.8 0 0 Z " fill="#F0F0F0" transform="translate(56,245)"/>
<path d="M0 0 C6.6 0 13.2 0 20 0 C20 6.6 20 13.2 20 20 C13.4 20 6.8 20 0 20 C0 13.4 0 6.8 0 0 Z " fill="#FFFFFF" transform="translate(416,225)"/>
<path d="M0 0 C6.6 0 13.2 0 20 0 C20 6.6 20 13.2 20 20 C13.4 20 6.8 20 0 20 C0 13.4 0 6.8 0 0 Z " fill="#F0F0F0" transform="translate(396,225)"/>
<path d="M0 0 C6.6 0 13.2 0 20 0 C20 6.6 20 13.2 20 20 C13.4 20 6.8 20 0 20 C0 13.4 0 6.8 0 0 Z " fill="#F0F0F0" transform="translate(76,225)"/>
<path d="M0 0 C6.6 0 13.2 0 20 0 C20 6.6 20 13.2 20 20 C13.4 20 6.8 20 0 20 C0 13.4 0 6.8 0 0 Z " fill="#FFFFFF" transform="translate(56,225)"/>
<path d="M0 0 C6.6 0 13.2 0 20 0 C20 6.6 20 13.2 20 20 C13.4 20 6.8 20 0 20 C0 13.4 0 6.8 0 0 Z " fill="#FFFFFF" transform="translate(396,205)"/>
<path d="M0 0 C6.6 0 13.2 0 20 0 C20 6.6 20 13.2 20 20 C13.4 20 6.8 20 0 20 C0 13.4 0 6.8 0 0 Z " fill="#FEFEFE" transform="translate(316,205)"/>
<path d="M0 0 C6.6 0 13.2 0 20 0 C20 6.6 20 13.2 20 20 C13.4 20 6.8 20 0 20 C0 13.4 0 6.8 0 0 Z " fill="#FFFFFF" transform="translate(416,185)"/>
<path d="M0 0 C6.6 0 13.2 0 20 0 C20 6.6 20 13.2 20 20 C13.4 20 6.8 20 0 20 C0 13.4 0 6.8 0 0 Z " fill="#F0F0F0" transform="translate(396,185)"/>
<path d="M0 0 C6.6 0 13.2 0 20 0 C20 6.6 20 13.2 20 20 C13.4 20 6.8 20 0 20 C0 13.4 0 6.8 0 0 Z " fill="#FFFFFF" transform="translate(56,185)"/>
<path d="M0 0 C6.6 0 13.2 0 20 0 C20 6.6 20 13.2 20 20 C13.4 20 6.8 20 0 20 C0 13.4 0 6.8 0 0 Z " fill="#FFFFFF" transform="translate(396,165)"/>
<path d="M0 0 C6.6 0 13.2 0 20 0 C20 6.6 20 13.2 20 20 C13.4 20 6.8 20 0 20 C0 13.4 0 6.8 0 0 Z " fill="#FFFFFF" transform="translate(316,165)"/>
<path d="M0 0 C6.6 0 13.2 0 20 0 C20 6.6 20 13.2 20 20 C13.4 20 6.8 20 0 20 C0 13.4 0 6.8 0 0 Z " fill="#FFFFFF" transform="translate(76,165)"/>
<path d="M0 0 C6.6 0 13.2 0 20 0 C20 6.6 20 13.2 20 20 C13.4 20 6.8 20 0 20 C0 13.4 0 6.8 0 0 Z " fill="#F0F0F0" transform="translate(336,125)"/>
<path d="M0 0 C6.6 0 13.2 0 20 0 C20 6.6 20 13.2 20 20 C13.4 20 6.8 20 0 20 C0 13.4 0 6.8 0 0 Z " fill="#FFFFFF" transform="translate(316,125)"/>
<path d="M0 0 C6.6 0 13.2 0 20 0 C20 6.6 20 13.2 20 20 C13.4 20 6.8 20 0 20 C0 13.4 0 6.8 0 0 Z " fill="#FFFFFF" transform="translate(196,125)"/>
<path d="M0 0 C6.6 0 13.2 0 20 0 C20 6.6 20 13.2 20 20 C13.4 20 6.8 20 0 20 C0 13.4 0 6.8 0 0 Z " fill="#FFFFFF" transform="translate(456,105)"/>
<path d="M0 0 C6.6 0 13.2 0 20 0 C20 6.6 20 13.2 20 20 C13.4 20 6.8 20 0 20 C0 13.4 0 6.8 0 0 Z " fill="#F0F0F0" transform="translate(356,105)"/>
<path d="M0 0 C6.6 0 13.2 0 20 0 C20 6.6 20 13.2 20 20 C13.4 20 6.8 20 0 20 C0 13.4 0 6.8 0 0 Z " fill="#FFFFFF" transform="translate(336,105)"/>
<path d="M0 0 C6.6 0 13.2 0 20 0 C20 6.6 20 13.2 20 20 C13.4 20 6.8 20 0 20 C0 13.4 0 6.8 0 0 Z " fill="#F0F0F0" transform="translate(316,105)"/>
<path d="M0 0 C6.6 0 13.2 0 20 0 C20 6.6 20 13.2 20 20 C13.4 20 6.8 20 0 20 C0 13.4 0 6.8 0 0 Z " fill="#FFFFFF" transform="translate(296,105)"/>
<path d="M0 0 C6.6 0 13.2 0 20 0 C20 6.6 20 13.2 20 20 C13.4 20 6.8 20 0 20 C0 13.4 0 6.8 0 0 Z " fill="#F0F0F0" transform="translate(276,105)"/>
<path d="M0 0 C6.6 0 13.2 0 20 0 C20 6.6 20 13.2 20 20 C13.4 20 6.8 20 0 20 C0 13.4 0 6.8 0 0 Z " fill="#FFFFFF" transform="translate(256,105)"/>
<path d="M0 0 C6.6 0 13.2 0 20 0 C20 6.6 20 13.2 20 20 C13.4 20 6.8 20 0 20 C0 13.4 0 6.8 0 0 Z " fill="#F0F0F0" transform="translate(236,105)"/>
<path d="M0 0 C6.6 0 13.2 0 20 0 C20 6.6 20 13.2 20 20 C13.4 20 6.8 20 0 20 C0 13.4 0 6.8 0 0 Z " fill="#FFFFFF" transform="translate(216,105)"/>
<path d="M0 0 C6.6 0 13.2 0 20 0 C20 6.6 20 13.2 20 20 C13.4 20 6.8 20 0 20 C0 13.4 0 6.8 0 0 Z " fill="#F0F0F0" transform="translate(196,105)"/>
<path d="M0 0 C6.6 0 13.2 0 20 0 C20 6.6 20 13.2 20 20 C13.4 20 6.8 20 0 20 C0 13.4 0 6.8 0 0 Z " fill="#FFFFFF" transform="translate(176,105)"/>
<path d="M0 0 C6.6 0 13.2 0 20 0 C20 6.6 20 13.2 20 20 C13.4 20 6.8 20 0 20 C0 13.4 0 6.8 0 0 Z " fill="#F0F0F0" transform="translate(116,105)"/>
<path d="M0 0 C6.6 0 13.2 0 20 0 C20 6.6 20 13.2 20 20 C13.4 20 6.8 20 0 20 C0 13.4 0 6.8 0 0 Z " fill="#FFFFFF" transform="translate(16,105)"/>
<path d="M0 0 C6.6 0 13.2 0 20 0 C20 6.6 20 13.2 20 20 C13.4 20 6.8 20 0 20 C0 13.4 0 6.8 0 0 Z " fill="#F0F0F0" transform="translate(456,85)"/>
<path d="M0 0 C6.6 0 13.2 0 20 0 C20 6.6 20 13.2 20 20 C13.4 20 6.8 20 0 20 C0 13.4 0 6.8 0 0 Z " fill="#F0F0F0" transform="translate(336,85)"/>
<path d="M0 0 C6.6 0 13.2 0 20 0 C20 6.6 20 13.2 20 20 C13.4 20 6.8 20 0 20 C0 13.4 0 6.8 0 0 Z " fill="#FFFFFF" transform="translate(316,85)"/>
<path d="M0 0 C6.6 0 13.2 0 20 0 C20 6.6 20 13.2 20 20 C13.4 20 6.8 20 0 20 C0 13.4 0 6.8 0 0 Z " fill="#F0F0F0" transform="translate(296,85)"/>
<path d="M0 0 C6.6 0 13.2 0 20 0 C20 6.6 20 13.2 20 20 C13.4 20 6.8 20 0 20 C0 13.4 0 6.8 0 0 Z " fill="#FFFFFF" transform="translate(276,85)"/>
<path d="M0 0 C6.6 0 13.2 0 20 0 C20 6.6 20 13.2 20 20 C13.4 20 6.8 20 0 20 C0 13.4 0 6.8 0 0 Z " fill="#F0F0F0" transform="translate(256,85)"/>
<path d="M0 0 C6.6 0 13.2 0 20 0 C20 6.6 20 13.2 20 20 C13.4 20 6.8 20 0 20 C0 13.4 0 6.8 0 0 Z " fill="#FFFFFF" transform="translate(236,85)"/>
<path d="M0 0 C6.6 0 13.2 0 20 0 C20 6.6 20 13.2 20 20 C13.4 20 6.8 20 0 20 C0 13.4 0 6.8 0 0 Z " fill="#F0F0F0" transform="translate(216,85)"/>
<path d="M0 0 C6.6 0 13.2 0 20 0 C20 6.6 20 13.2 20 20 C13.4 20 6.8 20 0 20 C0 13.4 0 6.8 0 0 Z " fill="#FFFFFF" transform="translate(196,85)"/>
<path d="M0 0 C6.6 0 13.2 0 20 0 C20 6.6 20 13.2 20 20 C13.4 20 6.8 20 0 20 C0 13.4 0 6.8 0 0 Z " fill="#F0F0F0" transform="translate(176,85)"/>
<path d="M0 0 C6.6 0 13.2 0 20 0 C20 6.6 20 13.2 20 20 C13.4 20 6.8 20 0 20 C0 13.4 0 6.8 0 0 Z " fill="#FFFFFF" transform="translate(156,85)"/>
<path d="M0 0 C6.6 0 13.2 0 20 0 C20 6.6 20 13.2 20 20 C13.4 20 6.8 20 0 20 C0 13.4 0 6.8 0 0 Z " fill="#F0F0F0" transform="translate(16,85)"/>
<path d="M0 0 C6.6 0 13.2 0 20 0 C20 6.6 20 13.2 20 20 C13.4 20 6.8 20 0 20 C0 13.4 0 6.8 0 0 Z " fill="#FFFFFF" transform="translate(456,65)"/>
<path d="M0 0 C6.6 0 13.2 0 20 0 C20 6.6 20 13.2 20 20 C13.4 20 6.8 20 0 20 C0 13.4 0 6.8 0 0 Z " fill="#F0F0F0" transform="translate(436,65)"/>
<path d="M0 0 C6.6 0 13.2 0 20 0 C20 6.6 20 13.2 20 20 C13.4 20 6.8 20 0 20 C0 13.4 0 6.8 0 0 Z " fill="#F0F0F0" transform="translate(316,65)"/>
<path d="M0 0 C6.6 0 13.2 0 20 0 C20 6.6 20 13.2 20 20 C13.4 20 6.8 20 0 20 C0 13.4 0 6.8 0 0 Z " fill="#FFFFFF" transform="translate(296,65)"/>
<path d="M0 0 C6.6 0 13.2 0 20 0 C20 6.6 20 13.2 20 20 C13.4 20 6.8 20 0 20 C0 13.4 0 6.8 0 0 Z " fill="#F0F0F0" transform="translate(276,65)"/>
<path d="M0 0 C6.6 0 13.2 0 20 0 C20 6.6 20 13.2 20 20 C13.4 20 6.8 20 0 20 C0 13.4 0 6.8 0 0 Z " fill="#FFFFFF" transform="translate(256,65)"/>
<path d="M0 0 C6.6 0 13.2 0 20 0 C20 6.6 20 13.2 20 20 C13.4 20 6.8 20 0 20 C0 13.4 0 6.8 0 0 Z " fill="#F0F0F0" transform="translate(236,65)"/>
<path d="M0 0 C6.6 0 13.2 0 20 0 C20 6.6 20 13.2 20 20 C13.4 20 6.8 20 0 20 C0 13.4 0 6.8 0 0 Z " fill="#FFFFFF" transform="translate(216,65)"/>
<path d="M0 0 C6.6 0 13.2 0 20 0 C20 6.6 20 13.2 20 20 C13.4 20 6.8 20 0 20 C0 13.4 0 6.8 0 0 Z " fill="#F0F0F0" transform="translate(196,65)"/>
<path d="M0 0 C6.6 0 13.2 0 20 0 C20 6.6 20 13.2 20 20 C13.4 20 6.8 20 0 20 C0 13.4 0 6.8 0 0 Z " fill="#FFFFFF" transform="translate(176,65)"/>
<path d="M0 0 C6.6 0 13.2 0 20 0 C20 6.6 20 13.2 20 20 C13.4 20 6.8 20 0 20 C0 13.4 0 6.8 0 0 Z " fill="#F0F0F0" transform="translate(156,65)"/>
<path d="M0 0 C6.6 0 13.2 0 20 0 C20 6.6 20 13.2 20 20 C13.4 20 6.8 20 0 20 C0 13.4 0 6.8 0 0 Z " fill="#F0F0F0" transform="translate(36,65)"/>
<path d="M0 0 C6.6 0 13.2 0 20 0 C20 6.6 20 13.2 20 20 C13.4 20 6.8 20 0 20 C0 13.4 0 6.8 0 0 Z " fill="#FFFFFF" transform="translate(16,65)"/>
<path d="M0 0 C6.6 0 13.2 0 20 0 C20 6.6 20 13.2 20 20 C13.4 20 6.8 20 0 20 C0 13.4 0 6.8 0 0 Z " fill="#F0F0F0" transform="translate(456,45)"/>
<path d="M0 0 C6.6 0 13.2 0 20 0 C20 6.6 20 13.2 20 20 C13.4 20 6.8 20 0 20 C0 13.4 0 6.8 0 0 Z " fill="#FFFFFF" transform="translate(436,45)"/>
<path d="M0 0 C6.6 0 13.2 0 20 0 C20 6.6 20 13.2 20 20 C13.4 20 6.8 20 0 20 C0 13.4 0 6.8 0 0 Z " fill="#F0F0F0" transform="translate(416,45)"/>
<path d="M0 0 C6.6 0 13.2 0 20 0 C20 6.6 20 13.2 20 20 C13.4 20 6.8 20 0 20 C0 13.4 0 6.8 0 0 Z " fill="#FFFFFF" transform="translate(236,45)"/>
<path d="M0 0 C6.6 0 13.2 0 20 0 C20 6.6 20 13.2 20 20 C13.4 20 6.8 20 0 20 C0 13.4 0 6.8 0 0 Z " fill="#F0F0F0" transform="translate(216,45)"/>
<path d="M0 0 C6.6 0 13.2 0 20 0 C20 6.6 20 13.2 20 20 C13.4 20 6.8 20 0 20 C0 13.4 0 6.8 0 0 Z " fill="#F0F0F0" transform="translate(56,45)"/>
<path d="M0 0 C6.6 0 13.2 0 20 0 C20 6.6 20 13.2 20 20 C13.4 20 6.8 20 0 20 C0 13.4 0 6.8 0 0 Z " fill="#FFFFFF" transform="translate(36,45)"/>
<path d="M0 0 C6.6 0 13.2 0 20 0 C20 6.6 20 13.2 20 20 C13.4 20 6.8 20 0 20 C0 13.4 0 6.8 0 0 Z " fill="#F0F0F0" transform="translate(16,45)"/>
<path d="M0 0 C6.6 0 13.2 0 20 0 C20 6.6 20 13.2 20 20 C13.4 20 6.8 20 0 20 C0 13.4 0 6.8 0 0 Z " fill="#FFFFFF" transform="translate(456,25)"/>
<path d="M0 0 C6.6 0 13.2 0 20 0 C20 6.6 20 13.2 20 20 C13.4 20 6.8 20 0 20 C0 13.4 0 6.8 0 0 Z " fill="#F0F0F0" transform="translate(436,25)"/>
<path d="M0 0 C6.6 0 13.2 0 20 0 C20 6.6 20 13.2 20 20 C13.4 20 6.8 20 0 20 C0 13.4 0 6.8 0 0 Z " fill="#FFFFFF" transform="translate(416,25)"/>
<path d="M0 0 C6.6 0 13.2 0 20 0 C20 6.6 20 13.2 20 20 C13.4 20 6.8 20 0 20 C0 13.4 0 6.8 0 0 Z " fill="#F0F0F0" transform="translate(396,25)"/>
<path d="M0 0 C6.6 0 13.2 0 20 0 C20 6.6 20 13.2 20 20 C13.4 20 6.8 20 0 20 C0 13.4 0 6.8 0 0 Z " fill="#FFFFFF" transform="translate(96,25)"/>
<path d="M0 0 C6.6 0 13.2 0 20 0 C20 6.6 20 13.2 20 20 C13.4 20 6.8 20 0 20 C0 13.4 0 6.8 0 0 Z " fill="#F0F0F0" transform="translate(76,25)"/>
<path d="M0 0 C6.6 0 13.2 0 20 0 C20 6.6 20 13.2 20 20 C13.4 20 6.8 20 0 20 C0 13.4 0 6.8 0 0 Z " fill="#FFFFFF" transform="translate(56,25)"/>
<path d="M0 0 C6.6 0 13.2 0 20 0 C20 6.6 20 13.2 20 20 C13.4 20 6.8 20 0 20 C0 13.4 0 6.8 0 0 Z " fill="#F0F0F0" transform="translate(36,25)"/>
<path d="M0 0 C6.6 0 13.2 0 20 0 C20 6.6 20 13.2 20 20 C13.4 20 6.8 20 0 20 C0 13.4 0 6.8 0 0 Z " fill="#FFFFFF" transform="translate(16,25)"/>
<path d="M0 0 C6.6 0 13.2 0 20 0 C20 6.6 20 13.2 20 20 C13.4 20 6.8 20 0 20 C0 13.4 0 6.8 0 0 Z " fill="#F0F0F0" transform="translate(456,5)"/>
<path d="M0 0 C6.6 0 13.2 0 20 0 C20 6.6 20 13.2 20 20 C13.4 20 6.8 20 0 20 C0 13.4 0 6.8 0 0 Z " fill="#FFFFFF" transform="translate(436,5)"/>
<path d="M0 0 C6.6 0 13.2 0 20 0 C20 6.6 20 13.2 20 20 C13.4 20 6.8 20 0 20 C0 13.4 0 6.8 0 0 Z " fill="#F0F0F0" transform="translate(416,5)"/>
<path d="M0 0 C6.6 0 13.2 0 20 0 C20 6.6 20 13.2 20 20 C13.4 20 6.8 20 0 20 C0 13.4 0 6.8 0 0 Z " fill="#FFFFFF" transform="translate(396,5)"/>
<path d="M0 0 C6.6 0 13.2 0 20 0 C20 6.6 20 13.2 20 20 C13.4 20 6.8 20 0 20 C0 13.4 0 6.8 0 0 Z " fill="#F0F0F0" transform="translate(376,5)"/>
<path d="M0 0 C6.6 0 13.2 0 20 0 C20 6.6 20 13.2 20 20 C13.4 20 6.8 20 0 20 C0 13.4 0 6.8 0 0 Z " fill="#FFFFFF" transform="translate(356,5)"/>
<path d="M0 0 C6.6 0 13.2 0 20 0 C20 6.6 20 13.2 20 20 C13.4 20 6.8 20 0 20 C0 13.4 0 6.8 0 0 Z " fill="#FFFFFF" transform="translate(116,5)"/>
<path d="M0 0 C6.6 0 13.2 0 20 0 C20 6.6 20 13.2 20 20 C13.4 20 6.8 20 0 20 C0 13.4 0 6.8 0 0 Z " fill="#F0F0F0" transform="translate(96,5)"/>
<path d="M0 0 C6.6 0 13.2 0 20 0 C20 6.6 20 13.2 20 20 C13.4 20 6.8 20 0 20 C0 13.4 0 6.8 0 0 Z " fill="#FFFFFF" transform="translate(76,5)"/>
<path d="M0 0 C6.6 0 13.2 0 20 0 C20 6.6 20 13.2 20 20 C13.4 20 6.8 20 0 20 C0 13.4 0 6.8 0 0 Z " fill="#F0F0F0" transform="translate(56,5)"/>
<path d="M0 0 C6.6 0 13.2 0 20 0 C20 6.6 20 13.2 20 20 C13.4 20 6.8 20 0 20 C0 13.4 0 6.8 0 0 Z " fill="#FFFFFF" transform="translate(36,5)"/>
<path d="M0 0 C6.6 0 13.2 0 20 0 C20 6.6 20 13.2 20 20 C13.4 20 6.8 20 0 20 C0 13.4 0 6.8 0 0 Z " fill="#F0F0F0" transform="translate(16,5)"/>
<path d="M0 0 C6.6 0 13.2 0 20 0 C20.020625 2.51625 20.04125 5.0325 20.0625 7.625 C20.071604 8.40568848 20.08070801 9.18637695 20.09008789 9.99072266 C20.10628227 14.10618477 19.81221488 17.945321 19 22 C18.67 21.34 18.34 20.68 18 20 C12.06 20 6.12 20 0 20 C0 13.4 0 6.8 0 0 Z " fill="#F0EFEF" transform="translate(216,125)"/>
<path d="M0 0 C1.03386841 0.17390259 1.03386841 0.17390259 2.08862305 0.35131836 C19.95127131 3.50920041 19.95127131 3.50920041 38 5 C38.74121094 5.02046387 39.48242188 5.04092773 40.24609375 5.06201172 C51.45405755 5.3264742 62.57064339 4.95880399 73.75 4.125 C74.82016357 4.04660889 75.89032715 3.96821777 76.99291992 3.88745117 C82.69189984 3.42180009 88.18107044 2.68557792 93.75488281 1.39794922 C96.20911262 0.96293458 98.51254217 0.93477138 101 1 C101 2.98 101 4.96 101 7 C81.2 7 61.4 7 41 7 C41 8.65 41 10.3 41 12 C34.4 12 27.8 12 21 12 C21 10.35 21 8.7 21 7 C14.4 7 7.8 7 1 7 C0.67 4.69 0.34 2.38 0 0 Z " fill="#F2EFEB" transform="translate(195,478)"/>
<path d="M0 0 C6.27 0 12.54 0 19 0 C19.90238747 2.70716242 20.11851302 4.23776768 20.09765625 7.01171875 C20.09515869 7.69451904 20.09266113 8.37731934 20.09008789 9.08081055 C20.08098389 9.94101807 20.07187988 10.80122559 20.0625 11.6875 C20.041875 14.430625 20.02125 17.17375 20 20 C13.4 20 6.8 20 0 20 C0 13.4 0 6.8 0 0 Z " fill="#FEFEFE" transform="translate(236,285)"/>
<path d="M0 0 C0.74362793 0.01047363 1.48725586 0.02094727 2.25341797 0.03173828 C3.34227295 0.03923096 3.34227295 0.03923096 4.453125 0.046875 C5.83540283 0.07418701 5.83540283 0.07418701 7.24560547 0.10205078 C10.17435547 0.14330078 13.10310547 0.18455078 16.12060547 0.22705078 C16.12060547 6.82705078 16.12060547 13.42705078 16.12060547 20.22705078 C9.52060547 20.22705078 2.92060547 20.22705078 -3.87939453 20.22705078 C-3.92064453 17.29830078 -3.96189453 14.36955078 -4.00439453 11.35205078 C-4.02260254 10.43053223 -4.04081055 9.50901367 -4.05957031 8.55957031 C-4.06456543 7.83366699 -4.06956055 7.10776367 -4.07470703 6.35986328 C-4.09041748 5.24442139 -4.09041748 5.24442139 -4.10644531 4.10644531 C-3.77623674 1.37317052 -2.7332748 0.33020857 0 0 Z " fill="#FFFFFF" transform="translate(199.87939453125,244.77294921875)"/>
<path d="M0 0 C8.23412049 -0.43337476 18.5078343 0.25391715 26 4 C26 9.61 26 15.22 26 21 C19.4 21 12.8 21 6 21 C6 14.4 6 7.8 6 1 C4.02 1 2.04 1 0 1 C0 0.67 0 0.34 0 0 Z " fill="#FEFEFD" transform="translate(270,44)"/>
<path d="M0 0 C2.5575 0.0825 5.115 0.165 7.75 0.25 C7.75 6.85 7.75 13.45 7.75 20.25 C1.15 20.25 -5.45 20.25 -12.25 20.25 C-12.3325 17.6925 -12.415 15.135 -12.5 12.5 C-12.53641602 11.70110352 -12.57283203 10.90220703 -12.61035156 10.07910156 C-12.66177474 6.78635965 -12.45405226 4.5900871 -10.75 1.75 C-7.21644072 -0.37013557 -3.98002542 -0.18142109 0 0 Z " fill="#FEFEFE" transform="translate(128.25,84.75)"/>
<path d="M0 0 C4.95 0 9.9 0 15 0 C15 33.99 15 67.98 15 103 C14.67 103 14.34 103 14 103 C14 75.61 14 48.22 14 20 C9.38 20 4.76 20 0 20 C0 13.4 0 6.8 0 0 Z " fill="#F0EBE1" transform="translate(236,345)"/>
<path d="M0 0 C6.6 0 13.2 0 20 0 C20 6.6 20 13.2 20 20 C14.06 20 8.12 20 2 20 C2 15.71 2 11.42 2 7 C0.02 7 -1.96 7 -4 7 C-2.68 6.67 -1.36 6.34 0 6 C0 4.02 0 2.04 0 0 Z " fill="#F0EFEE" transform="translate(376,125)"/>
<path d="M0 0 C5.94 0 11.88 0 18 0 C18 6.6 18 13.2 18 20 C12.06 20 6.12 20 0 20 C0 13.4 0 6.8 0 0 Z " fill="#FFFFFF" transform="translate(378,345)"/>
<path d="M0 0 C5.94 0 11.88 0 18 0 C18 6.6 18 13.2 18 20 C12.06 20 6.12 20 0 20 C0 13.4 0 6.8 0 0 Z " fill="#F0F0F0" transform="translate(378,325)"/>
<path d="M0 0 C5.94 0 11.88 0 18 0 C18 6.6 18 13.2 18 20 C12.06 20 6.12 20 0 20 C0 13.4 0 6.8 0 0 Z " fill="#FFFFFF" transform="translate(378,305)"/>
<path d="M0 0 C5.94 0 11.88 0 18 0 C18 6.6 18 13.2 18 20 C12.06 20 6.12 20 0 20 C0 13.4 0 6.8 0 0 Z " fill="#F0F0F0" transform="translate(378,285)"/>
<path d="M0 0 C5.94 0 11.88 0 18 0 C18 6.6 18 13.2 18 20 C12.06 20 6.12 20 0 20 C0 13.4 0 6.8 0 0 Z " fill="#FFFFFF" transform="translate(378,265)"/>
<path d="M0 0 C5.94 0 11.88 0 18 0 C18 6.6 18 13.2 18 20 C12.06 20 6.12 20 0 20 C0 13.4 0 6.8 0 0 Z " fill="#F0F0F0" transform="translate(378,245)"/>
<path d="M0 0 C5.94 0 11.88 0 18 0 C18 6.6 18 13.2 18 20 C12.06 20 6.12 20 0 20 C0 13.4 0 6.8 0 0 Z " fill="#FFFFFF" transform="translate(378,225)"/>
<path d="M0 0 C5.94 0 11.88 0 18 0 C18 6.6 18 13.2 18 20 C12.06 20 6.12 20 0 20 C0 13.4 0 6.8 0 0 Z " fill="#F0F0F0" transform="translate(378,205)"/>
<path d="M0 0 C5.94 0 11.88 0 18 0 C18 6.6 18 13.2 18 20 C12.06 20 6.12 20 0 20 C0 13.4 0 6.8 0 0 Z " fill="#FFFFFF" transform="translate(378,185)"/>
<path d="M0 0 C5.94 0 11.88 0 18 0 C18 6.6 18 13.2 18 20 C12.06 20 6.12 20 0 20 C0 13.4 0 6.8 0 0 Z " fill="#F0F0F0" transform="translate(378,165)"/>
<path d="M0 0 C5.94 0 11.88 0 18 0 C18 6.6 18 13.2 18 20 C12.06 20 6.12 20 0 20 C0 13.4 0 6.8 0 0 Z " fill="#FFFFFF" transform="translate(378,145)"/>
<path d="M0 0 C5.94 0 11.88 0 18 0 C18.20146331 7.05121598 17.57195776 13.1226848 16 20 C10.72 20 5.44 20 0 20 C0 13.4 0 6.8 0 0 Z " fill="#FEFEFE" transform="translate(216,145)"/>
<path d="M0 0 C5.61 0 11.22 0 17 0 C17 6.6 17 13.2 17 20 C11.39 20 5.78 20 0 20 C0 13.4 0 6.8 0 0 Z " fill="#FFFFFF" transform="translate(476,445)"/>
<path d="M0 0 C5.61 0 11.22 0 17 0 C17 6.6 17 13.2 17 20 C11.39 20 5.78 20 0 20 C0 13.4 0 6.8 0 0 Z " fill="#F0F0F0" transform="translate(476,425)"/>
<path d="M0 0 C5.61 0 11.22 0 17 0 C17 6.6 17 13.2 17 20 C11.39 20 5.78 20 0 20 C0 13.4 0 6.8 0 0 Z " fill="#FFFFFF" transform="translate(476,405)"/>
<path d="M0 0 C5.61 0 11.22 0 17 0 C17 6.6 17 13.2 17 20 C11.39 20 5.78 20 0 20 C0 13.4 0 6.8 0 0 Z " fill="#F0F0F0" transform="translate(476,385)"/>
<path d="M0 0 C5.61 0 11.22 0 17 0 C17 6.6 17 13.2 17 20 C11.39 20 5.78 20 0 20 C0 13.4 0 6.8 0 0 Z " fill="#FFFFFF" transform="translate(476,365)"/>
<path d="M0 0 C5.61 0 11.22 0 17 0 C17 6.6 17 13.2 17 20 C11.39 20 5.78 20 0 20 C0 13.4 0 6.8 0 0 Z " fill="#FFFFFF" transform="translate(116,365)"/>
<path d="M0 0 C5.61 0 11.22 0 17 0 C17 6.6 17 13.2 17 20 C11.39 20 5.78 20 0 20 C0 13.4 0 6.8 0 0 Z " fill="#FFFFFF" transform="translate(476,325)"/>
<path d="M0 0 C5.61 0 11.22 0 17 0 C17 6.6 17 13.2 17 20 C11.39 20 5.78 20 0 20 C0 13.4 0 6.8 0 0 Z " fill="#F0F0F0" transform="translate(476,145)"/>
<path d="M0 0 C5.61 0 11.22 0 17 0 C17 6.6 17 13.2 17 20 C11.39 20 5.78 20 0 20 C0 13.4 0 6.8 0 0 Z " fill="#FFFFFF" transform="translate(476,125)"/>
<path d="M0 0 C5.61 0 11.22 0 17 0 C17 6.6 17 13.2 17 20 C11.39 20 5.78 20 0 20 C0 13.4 0 6.8 0 0 Z " fill="#F0F0F0" transform="translate(476,105)"/>
<path d="M0 0 C5.61 0 11.22 0 17 0 C17 6.6 17 13.2 17 20 C11.39 20 5.78 20 0 20 C0 13.4 0 6.8 0 0 Z " fill="#FFFFFF" transform="translate(476,85)"/>
<path d="M0 0 C5.61 0 11.22 0 17 0 C17 6.6 17 13.2 17 20 C11.39 20 5.78 20 0 20 C0 13.4 0 6.8 0 0 Z " fill="#F0F0F0" transform="translate(476,65)"/>
<path d="M0 0 C5.61 0 11.22 0 17 0 C17 6.6 17 13.2 17 20 C11.39 20 5.78 20 0 20 C0 13.4 0 6.8 0 0 Z " fill="#FFFFFF" transform="translate(476,45)"/>
<path d="M0 0 C5.61 0 11.22 0 17 0 C17 6.6 17 13.2 17 20 C11.39 20 5.78 20 0 20 C0 13.4 0 6.8 0 0 Z " fill="#F0F0F0" transform="translate(476,25)"/>
<path d="M0 0 C5.61 0 11.22 0 17 0 C17 6.6 17 13.2 17 20 C11.39 20 5.78 20 0 20 C0 13.4 0 6.8 0 0 Z " fill="#FFFFFF" transform="translate(476,5)"/>
<path d="M0 0 C6.27 0 12.54 0 19 0 C18.01 6.6 17.02 13.2 16 20 C10.72 20 5.44 20 0 20 C0 13.4 0 6.8 0 0 Z " fill="#FEFEFD" transform="translate(236,325)"/>
<path d="M0 0 C5.61 0 11.22 0 17 0 C17 6.6 17 13.2 17 20 C12.05 20 7.1 20 2 20 C0.19633886 13.1235419 -0.18004053 7.11160094 0 0 Z " fill="#EFEFEF" transform="translate(279,305)"/>
<path d="M0 0 C4.95 0 9.9 0 15 0 C15 6.6 15 13.2 15 20 C9.39 20 3.78 20 -2 20 C-2.20146331 12.94878402 -1.57195776 6.8773152 0 0 Z " fill="#FEFEFE" transform="translate(281,285)"/>
<path d="M0 0 C6.6 0 13.2 0 20 0 C20 4.29 20 8.58 20 13 C18.02 13 16.04 13 14 13 C13.67 15.31 13.34 17.62 13 20 C10.36 20 7.72 20 5 20 C5 17.69 5 15.38 5 13 C3.35 13 1.7 13 0 13 C0 8.71 0 4.42 0 0 Z " fill="#FEFEFE" transform="translate(276,125)"/>
<path d="M0 0 C5.28 0 10.56 0 16 0 C16 6.6 16 13.2 16 20 C10.72 20 5.44 20 0 20 C0 13.4 0 6.8 0 0 Z " fill="#FFFFFF" transform="translate(0,445)"/>
<path d="M0 0 C5.28 0 10.56 0 16 0 C16 6.6 16 13.2 16 20 C10.72 20 5.44 20 0 20 C0 13.4 0 6.8 0 0 Z " fill="#F0F0F0" transform="translate(0,425)"/>
<path d="M0 0 C5.28 0 10.56 0 16 0 C16 6.6 16 13.2 16 20 C10.72 20 5.44 20 0 20 C0 13.4 0 6.8 0 0 Z " fill="#FFFFFF" transform="translate(0,405)"/>
<path d="M0 0 C5.28 0 10.56 0 16 0 C16 6.6 16 13.2 16 20 C10.72 20 5.44 20 0 20 C0 13.4 0 6.8 0 0 Z " fill="#F0F0F0" transform="translate(0,385)"/>
<path d="M0 0 C5.28 0 10.56 0 16 0 C16 6.6 16 13.2 16 20 C10.72 20 5.44 20 0 20 C0 13.4 0 6.8 0 0 Z " fill="#FFFFFF" transform="translate(0,365)"/>
<path d="M0 0 C5.28 0 10.56 0 16 0 C16 6.6 16 13.2 16 20 C10.72 20 5.44 20 0 20 C0 13.4 0 6.8 0 0 Z " fill="#FFFFFF" transform="translate(0,325)"/>
<path d="M0 0 C5.28 0 10.56 0 16 0 C16 6.6 16 13.2 16 20 C10.72 20 5.44 20 0 20 C0 13.4 0 6.8 0 0 Z " fill="#F0F0F0" transform="translate(0,145)"/>
<path d="M0 0 C5.28 0 10.56 0 16 0 C16 6.6 16 13.2 16 20 C10.72 20 5.44 20 0 20 C0 13.4 0 6.8 0 0 Z " fill="#FFFFFF" transform="translate(0,125)"/>
<path d="M0 0 C5.28 0 10.56 0 16 0 C16 6.6 16 13.2 16 20 C10.72 20 5.44 20 0 20 C0 13.4 0 6.8 0 0 Z " fill="#F0F0F0" transform="translate(0,105)"/>
<path d="M0 0 C5.28 0 10.56 0 16 0 C16 6.6 16 13.2 16 20 C10.72 20 5.44 20 0 20 C0 13.4 0 6.8 0 0 Z " fill="#FFFFFF" transform="translate(0,85)"/>
<path d="M0 0 C5.28 0 10.56 0 16 0 C16 6.6 16 13.2 16 20 C10.72 20 5.44 20 0 20 C0 13.4 0 6.8 0 0 Z " fill="#F0F0F0" transform="translate(0,65)"/>
<path d="M0 0 C5.28 0 10.56 0 16 0 C16 6.6 16 13.2 16 20 C10.72 20 5.44 20 0 20 C0 13.4 0 6.8 0 0 Z " fill="#FFFFFF" transform="translate(0,45)"/>
<path d="M0 0 C5.28 0 10.56 0 16 0 C16 6.6 16 13.2 16 20 C10.72 20 5.44 20 0 20 C0 13.4 0 6.8 0 0 Z " fill="#F0F0F0" transform="translate(0,25)"/>
<path d="M0 0 C5.28 0 10.56 0 16 0 C16 6.6 16 13.2 16 20 C10.72 20 5.44 20 0 20 C0 13.4 0 6.8 0 0 Z " fill="#FFFFFF" transform="translate(0,5)"/>
<path d="M0 0 C6.6 0 13.2 0 20 0 C20 4.29 20 8.58 20 13 C19.01 13 18.02 13 17 13 C17 15.31 17 17.62 17 20 C14.36 20 11.72 20 9 20 C9 17.69 9 15.38 9 13 C6.03 13 3.06 13 0 13 C0 8.71 0 4.42 0 0 Z " fill="#FFFFFF" transform="translate(236,125)"/>
<path d="M0 0 C5.28 0 10.56 0 16 0 C16.07723467 6.79665108 16.03334237 13.28327457 15 20 C10.05 20 5.1 20 0 20 C0 13.4 0 6.8 0 0 Z " fill="#FEFEFE" transform="translate(316,245)"/>
<path d="M0 0 C6.6 0 13.2 0 20 0 C20 3.96 20 7.92 20 12 C17.04322789 13.17076229 14.08473257 14.33676671 11.125 15.5 C9.86236328 16.00080078 9.86236328 16.00080078 8.57421875 16.51171875 C7.76855469 16.82753906 6.96289062 17.14335937 6.1328125 17.46875 C5.01737061 17.90864258 5.01737061 17.90864258 3.87939453 18.35742188 C2 19 2 19 0 19 C0 12.73 0 6.46 0 0 Z " fill="#FEFEFD" transform="translate(156,5)"/>
<path d="M0 0 C6.6 0 13.2 0 20 0 C20 5.94 20 11.88 20 18 C15.10990978 17.18498496 11.22504371 16.12996891 6.625 14.4375 C5.98433594 14.20353516 5.34367187 13.96957031 4.68359375 13.72851562 C3.1206839 13.15700381 1.56009273 12.57915771 0 12 C0 8.04 0 4.08 0 0 Z " fill="#FEFEFC" transform="translate(316,5)"/>
<path d="M0 0 C10.395 3.465 10.395 3.465 21 7 C20.67 10.96 20.34 14.92 20 19 C13.4 19 6.8 19 0 19 C0 12.73 0 6.46 0 0 Z " fill="#F0EFEE" transform="translate(156,466)"/>
<path d="M0 0 C0 5.94 0 11.88 0 18 C-6.6 18 -13.2 18 -20 18 C-20.33 14.04 -20.66 10.08 -21 6 C-18.06428063 4.99449367 -15.1266423 3.99540746 -12.1875 3 C-11.35412109 2.71382813 -10.52074219 2.42765625 -9.66210938 2.1328125 C-8.45844727 1.72675781 -8.45844727 1.72675781 -7.23046875 1.3125 C-6.49207764 1.06113281 -5.75368652 0.80976563 -4.99291992 0.55078125 C-3 0 -3 0 0 0 Z " fill="#EFEEEC" transform="translate(336,467)"/>
<path d="M0 0 C5.28 0 10.56 0 16 0 C15.48736657 7.03040136 14.95853481 14.01638921 14 21 C7.07 20.505 7.07 20.505 0 20 C0 13.4 0 6.8 0 0 Z " fill="#F0EFEE" transform="translate(216,165)"/>
<path d="M0 0 C4.62 0 9.24 0 14 0 C14 6.6 14 13.2 14 20 C9.05 20 4.1 20 -1 20 C-1.02703562 17.41659616 -1.04685611 14.83347692 -1.0625 12.25 C-1.07087891 11.52039063 -1.07925781 10.79078125 -1.08789062 10.0390625 C-1.10423793 6.44265647 -0.87886398 3.51545592 0 0 Z " fill="#FEFEFD" transform="translate(162,285)"/>
<path d="M0 0 C4.95 0 9.9 0 15 0 C15.07723467 6.79665108 15.03334237 13.28327457 14 20 C9.38 20 4.76 20 0 20 C0 13.4 0 6.8 0 0 Z " fill="#EFEFED" transform="translate(316,265)"/>
<path d="M0 0 C4.95 0 9.9 0 15 0 C15 6.6 15 13.2 15 20 C10.71 20 6.42 20 2 20 C-0.48416614 13.3238035 -0.14616909 7.08920074 0 0 Z " fill="#FEFEFD" transform="translate(301,145)"/>
<path d="M0 0 C6.6 0 13.2 0 20 0 C20 3.96 20 7.92 20 12 C17.23058394 12.83830973 14.45964931 13.67082034 11.6875 14.5 C10.90181641 14.73847656 10.11613281 14.97695313 9.30664062 15.22265625 C8.54931641 15.44824219 7.79199219 15.67382812 7.01171875 15.90625 C6.31522217 16.11572266 5.61872559 16.32519531 4.90112305 16.54101562 C3 17 3 17 0 17 C0 11.39 0 5.78 0 0 Z " fill="#FEFEFD" transform="translate(296,425)"/>
<path d="M0 0 C2.51625 0.61875 5.0325 1.2375 7.625 1.875 C8.79603271 2.16093018 8.79603271 2.16093018 9.99072266 2.45263672 C14.06372009 3.46287244 18.03508217 4.61165338 22 6 C21.67 6.66 21.34 7.32 21 8 C20.67 10.97 20.34 13.94 20 17 C13.4 17 6.8 17 0 17 C0 11.39 0 5.78 0 0 Z " fill="#F0EFEE" transform="translate(296,48)"/>
<path d="M0 0 C0 5.61 0 11.22 0 17 C-6.6 17 -13.2 17 -20 17 C-20.33 13.37 -20.66 9.74 -21 6 C-18.60539412 5.18372554 -16.20943474 4.37188355 -13.8125 3.5625 C-13.13896484 3.33240234 -12.46542969 3.10230469 -11.77148438 2.86523438 C-3.25883152 0 -3.25883152 0 0 0 Z " fill="#EFEFED" transform="translate(196,48)"/>
<path d="M0 0 C4.62 0 9.24 0 14 0 C14 6.6 14 13.2 14 20 C9.38 20 4.76 20 0 20 C0 13.4 0 6.8 0 0 Z " fill="#FFFFFF" transform="translate(236,405)"/>
<path d="M0 0 C4.62 0 9.24 0 14 0 C14 6.6 14 13.2 14 20 C9.38 20 4.76 20 0 20 C0 13.4 0 6.8 0 0 Z " fill="#F0F0F0" transform="translate(236,385)"/>
<path d="M0 0 C4.62 0 9.24 0 14 0 C14 6.6 14 13.2 14 20 C9.38 20 4.76 20 0 20 C0 13.4 0 6.8 0 0 Z " fill="#FFFFFF" transform="translate(236,365)"/>
<path d="M0 0 C4.29 0 8.58 0 13 0 C13.8826125 4.4130625 14.11788215 8.36062753 14.0625 12.8125 C14.05798828 13.50537109 14.05347656 14.19824219 14.04882812 14.91210938 C14.03713156 16.60811068 14.01919924 18.30406703 14 20 C9.38 20 4.76 20 0 20 C0 13.4 0 6.8 0 0 Z " fill="#EFEFED" transform="translate(436,225)"/>
<path d="M0 0 C4.62 0 9.24 0 14 0 C14.14285714 13.85714286 14.14285714 13.85714286 13 20 C8.71 20 4.42 20 0 20 C0 13.4 0 6.8 0 0 Z " fill="#FEFDFB" transform="translate(316,285)"/>
<path d="M0 0 C4.95 0 9.9 0 15 0 C15 6.6 15 13.2 15 20 C11.04 20 7.08 20 3 20 C2.49685437 17.22970414 1.99736162 14.4588348 1.5 11.6875 C1.35691406 10.90181641 1.21382813 10.11613281 1.06640625 9.30664062 C0.93105469 8.54931641 0.79570312 7.79199219 0.65625 7.01171875 C0.53056641 6.31522217 0.40488281 5.61872559 0.27539062 4.90112305 C0 3 0 3 0 0 Z " fill="#FEFEFD" transform="translate(281,325)"/>
<path d="M0 0 C4.95 0 9.9 0 15 0 C15 6.6 15 13.2 15 20 C11.37 20 7.74 20 4 20 C3.32550034 17.60612843 2.66023359 15.21030779 2 12.8125 C1.80921875 12.13896484 1.6184375 11.46542969 1.421875 10.77148438 C0.37711409 6.9469132 0 4.03123843 0 0 Z " fill="#EFEFED" transform="translate(478,185)"/>
<path d="M0 0 C4.95 0 9.9 0 15 0 C14.34034961 6.86036401 12.7637236 13.34443923 11 20 C7.37 20 3.74 20 0 20 C0 13.4 0 6.8 0 0 Z " fill="#EFEFEE" transform="translate(0,185)"/>
<path d="M0 0 C4.62 0 9.24 0 14 0 C14 6.6 14 13.2 14 20 C10.7 20 7.4 20 4 20 C3.67 20.66 3.34 21.32 3 22 C0.8228654 14.45778372 -0.34659834 7.85622895 0 0 Z " fill="#EFEEEB" transform="translate(162,305)"/>
<path d="M0 0 C3.63 0 7.26 0 11 0 C13.13439174 6.55563177 14.0159139 13.18168916 15 20 C10.05 20 5.1 20 0 20 C0 13.4 0 6.8 0 0 Z " fill="#FEFEFD" transform="translate(0,285)"/>
<path d="M0 0 C0.33 0.66 0.66 1.32 1 2 C4.63 2 8.26 2 12 2 C12 8.6 12 15.2 12 22 C7.71 22 3.42 22 -1 22 C-1.0270817 19.27076612 -1.04687847 16.54180363 -1.0625 13.8125 C-1.07087891 13.04357422 -1.07925781 12.27464844 -1.08789062 11.48242188 C-1.10491934 7.51473211 -0.98604115 3.87428766 0 0 Z " fill="#EFEEEA" transform="translate(44,223)"/>
<path d="M0 0 C3.63 0 7.26 0 11 0 C11 6.6 11 13.2 11 20 C6.05 20 1.1 20 -4 20 C-2.92349718 13.23341084 -1.78105501 6.61534718 0 0 Z " fill="#FEFEFE" transform="translate(482,285)"/>
<path d="M0 0 C3.96 0 7.92 0 12 0 C12 6.6 12 13.2 12 20 C8.37 20 4.74 20 1 20 C1 25.28 1 30.56 1 36 C0.67 36 0.34 36 0 36 C0 24.12 0 12.24 0 0 Z " fill="#F0EEE8" transform="translate(284,345)"/>
<path d="M0 0 C4.29 0 8.58 0 13 0 C13.02703562 2.58340384 13.04685611 5.16652308 13.0625 7.75 C13.07087891 8.47960937 13.07925781 9.20921875 13.08789062 9.9609375 C13.10423793 13.55734353 12.87886398 16.48454408 12 20 C8.04 20 4.08 20 0 20 C0 13.4 0 6.8 0 0 Z " fill="#EFEEEC" transform="translate(316,305)"/>
<path d="M0 0 C0.33 0 0.66 0 1 0 C1.01458252 0.8751123 1.02916504 1.75022461 1.04418945 2.65185547 C1.44031069 26.47770543 1.44031069 26.47770543 5 50 C3.02 50 1.04 50 -1 50 C-1 43.4 -1 36.8 -1 30 C-2.98 30 -4.96 30 -7 30 C-7.81651294 19.07687128 -6.1861545 9.27923175 0 0 Z " fill="#FBFAF7" transform="translate(117,175)"/>
<path d="M0 0 C3.96 0 7.92 0 12 0 C12.04898437 1.19238281 12.09796875 2.38476562 12.1484375 3.61328125 C12.22347604 5.17971068 12.2990234 6.74611579 12.375 8.3125 C12.4059375 9.09818359 12.436875 9.88386719 12.46875 10.69335938 C12.50742187 11.45068359 12.54609375 12.20800781 12.5859375 12.98828125 C12.6173584 13.68477783 12.6487793 14.38127441 12.68115234 15.09887695 C12.92118253 17.32532739 12.92118253 17.32532739 15 20 C10.05 20 5.1 20 0 20 C0 13.4 0 6.8 0 0 Z " fill="#FEFDFC" transform="translate(316,325)"/>
<path d="M0 0 C6.27 0 12.54 0 19 0 C17.948125 1.629375 16.89625 3.25875 15.8125 4.9375 C12.67581377 9.85929222 9.75586268 14.85656965 7 20 C4.69 20 2.38 20 0 20 C0 13.4 0 6.8 0 0 Z " fill="#FEFEFD" transform="translate(96,145)"/>
<path d="M0 0 C0.33 0 0.66 0 1 0 C1 5.61 1 11.22 1 17 C4.63 17 8.26 17 12 17 C12 22.61 12 28.22 12 34 C8.09567131 35.95216435 5.27786748 36.50639991 1 37 C-0.21077701 33.36766898 -0.12444164 30.04878013 -0.09765625 26.26953125 C-0.0962413 25.51911057 -0.09482635 24.76868988 -0.09336853 23.99552917 C-0.0877756 21.6011454 -0.07522444 19.20685547 -0.0625 16.8125 C-0.05748408 15.18815239 -0.05292134 13.56380332 -0.04882812 11.93945312 C-0.03780848 7.95959931 -0.02054873 3.97981556 0 0 Z " fill="#F0EDE7" transform="translate(284,408)"/>
<path d="M0 0 C6.6 0 13.2 0 20 0 C20 1.65 20 3.3 20 5 C26.6 5 33.2 5 40 5 C40 5.99 40 6.98 40 8 C20.2 8 0.4 8 -20 8 C-20 7.01 -20 6.02 -20 5 C-13.4 5 -6.8 5 0 5 C0 3.35 0 1.7 0 0 Z " fill="#F2F2F2" transform="translate(236,0)"/>
<path d="M0 0 C4.29 0 8.58 0 13 0 C12.49950263 7.84112541 11.77975764 15.34531424 10 23 C9.67 22.01 9.34 21.02 9 20 C6.03 20 3.06 20 0 20 C0 13.4 0 6.8 0 0 Z " fill="#F0EEEB" transform="translate(436,265)"/>
<path d="M0 0 C3.3 0 6.6 0 10 0 C11.92538853 6.67468024 12.52730173 13.06709197 13 20 C8.71 20 4.42 20 0 20 C0 13.4 0 6.8 0 0 Z " fill="#FEFDFC" transform="translate(436,205)"/>
<path d="M0 0 C13.2 0 26.4 0 40 0 C40 3.3 40 6.6 40 10 C36.31838894 9.3686768 33.09764915 8.29445954 29.625 6.9375 C19.9909723 3.66668813 9.65181115 3.8483882 0 7 C0 4.69 0 2.38 0 0 Z " fill="#FEFDFA" transform="translate(136,125)"/>
<path d="M0 0 C4.62 0 9.24 0 14 0 C12.56390017 6.73862227 10.85991713 13.36629557 9 20 C6.03 20 3.06 20 0 20 C0 13.4 0 6.8 0 0 Z " fill="#EFEFED" transform="translate(336,165)"/>
<path d="M0 0 C3.63 0 7.26 0 11 0 C11 6.6 11 13.2 11 20 C7.04 20 3.08 20 -1 20 C-0.67 13.4 -0.34 6.8 0 0 Z " fill="#FFFFFF" transform="translate(285,365)"/>
<path d="M0 0 C3.96 0 7.92 0 12 0 C12 6.6 12 13.2 12 20 C8.37 20 4.74 20 1 20 C0.67 13.4 0.34 6.8 0 0 Z " fill="#FEFEFE" transform="translate(284,405)"/>
<path d="M0 0 C3.96 0 7.92 0 12 0 C12 6.6 12 13.2 12 20 C9.36 20 6.72 20 4 20 C3.67 20.99 3.34 21.98 3 23 C2.49494737 20.10496617 1.9957978 17.20912047 1.5 14.3125 C1.35691406 13.49587891 1.21382812 12.67925781 1.06640625 11.83789062 C0.93105469 11.04189453 0.79570313 10.24589844 0.65625 9.42578125 C0.46772461 8.33390503 0.46772461 8.33390503 0.27539062 7.2199707 C0 5 0 5 0 0 Z " fill="#F0EEEB" transform="translate(44,265)"/>
<path d="M0 0 C2.97 0 5.94 0 9 0 C9 6.6 9 13.2 9 20 C5.37 20 1.74 20 -2 20 C-2.20146331 12.94878402 -1.57195776 6.8773152 0 0 Z " fill="#FEFEFE" transform="translate(47,205)"/>
<path d="M0 0 C3.63 0 7.26 0 11 0 C10.85879984 2.58366245 10.71221667 5.16682885 10.5625 7.75 C10.52318359 8.47960937 10.48386719 9.20921875 10.44335938 9.9609375 C10.23608465 13.46866362 9.8559939 16.57602438 9 20 C6.03 20 3.06 20 0 20 C0 13.4 0 6.8 0 0 Z " fill="#FEFEFD" transform="translate(336,385)"/>
<path d="M0 0 C3.63 0 7.26 0 11 0 C10.85834107 2.39614575 10.71181159 4.79182897 10.5625 7.1875 C10.50352539 8.19780273 10.50352539 8.19780273 10.44335938 9.22851562 C10.21072435 12.89699102 9.82792989 16.41694206 9 20 C6.03 20 3.06 20 0 20 C0 13.4 0 6.8 0 0 Z " fill="#EFEFEE" transform="translate(216,205)"/>
<path d="M0 0 C3.63 0 7.26 0 11 0 C11 6.6 11 13.2 11 20 C8.03 20 5.06 20 2 20 C1.66254646 17.60468244 1.3299171 15.20885732 1 12.8125 C0.90460938 12.13896484 0.80921875 11.46542969 0.7109375 10.77148438 C0.21059882 7.1082905 0 3.71764056 0 0 Z " fill="#FEFEFC" transform="translate(305,185)"/>
<path d="M0 0 C0.33 1.32 0.66 2.64 1 4 C3.64 4 6.28 4 9 4 C9 10.6 9 17.2 9 24 C5.37 24 1.74 24 -2 24 C-1.855625 22.453125 -1.71125 20.90625 -1.5625 19.3125 C-0.97619229 12.87986687 -0.4813 6.44122768 0 0 Z " fill="#F0EEEB" transform="translate(484,261)"/>
<path d="M0 0 C0.33719047 2.56204544 0.66987153 5.12454318 1 7.6875 C1.09539063 8.40873047 1.19078125 9.12996094 1.2890625 9.87304688 C1.37929687 10.57880859 1.46953125 11.28457031 1.5625 12.01171875 C1.64628906 12.65584717 1.73007813 13.29997559 1.81640625 13.96362305 C2.0270834 16.30040249 2 18.65374276 2 21 C-1.63 21 -5.26 21 -9 21 C-9 14.4 -9 7.8 -9 1 C-1 0 -1 0 0 0 Z " fill="#EFEEEC" transform="translate(9,264)"/>
<path d="M0 0 C0 6.27 0 12.54 0 19 C-4.62 19 -9.24 19 -14 19 C-13.54445395 13.71566585 -13.14695438 9.4254046 -10 5 C-2.69129288 0 -2.69129288 0 0 0 Z " fill="#EFEEEA" transform="translate(176,266)"/>
<path d="M0 0 C3.63 0 7.26 0 11 0 C10.88501733 2.20887757 10.75756495 4.41710787 10.625 6.625 C10.55539062 7.85476562 10.48578125 9.08453125 10.4140625 10.3515625 C10.0185513 13.83653855 9.23738151 16.73049601 8 20 C5.36 20 2.72 20 0 20 C0 13.4 0 6.8 0 0 Z " fill="#FEFEFC" transform="translate(0,205)"/>
<path d="M0 0 C2.97 0 5.94 0 9 0 C9.33745354 2.39531756 9.6700829 4.79114268 10 7.1875 C10.09539062 7.86103516 10.19078125 8.53457031 10.2890625 9.22851562 C10.78940118 12.8917095 11 16.28235944 11 20 C7.37 20 3.74 20 0 20 C0 13.4 0 6.8 0 0 Z " fill="#FEFEFC" transform="translate(216,225)"/>
<path d="M0 0 C2.97 0 5.94 0 9 0 C9 6.6 9 13.2 9 20 C5.7 20 2.4 20 -1 20 C-1.02712351 17.60408962 -1.0468982 15.20849043 -1.0625 12.8125 C-1.07087891 12.13896484 -1.07925781 11.46542969 -1.08789062 10.77148438 C-1.10606538 7.04565869 -0.89299392 3.6211958 0 0 Z " fill="#EFEFEE" transform="translate(244,185)"/>
<path d="M0 0 C3.63 0 7.26 0 11 0 C11 6.6 11 13.2 11 20 C8.36 20 5.72 20 3 20 C1.35420654 13.30710662 0.5221374 6.87480916 0 0 Z " fill="#FEFEFD" transform="translate(482,205)"/>
<path d="M0 0 C6.6 0 13.2 0 20 0 C20 1.98 20 3.96 20 6 C20.99 6.33 21.98 6.66 23 7 C19.54253984 7.83698495 16.08389511 8.66896676 12.625 9.5 C11.64015625 9.73847656 10.6553125 9.97695312 9.640625 10.22265625 C8.69960937 10.44824219 7.75859375 10.67382812 6.7890625 10.90625 C5.48509521 11.22045898 5.48509521 11.22045898 4.15478516 11.54101562 C2 12 2 12 0 12 C0 8.04 0 4.08 0 0 Z " fill="#F0EEEB" transform="translate(176,5)"/>
<path d="M0 0 C6.6 0 13.2 0 20 0 C20 3.96 20 7.92 20 12 C18.91460937 11.72285156 17.82921875 11.44570313 16.7109375 11.16015625 C15.26565719 10.7941437 13.82034288 10.4282654 12.375 10.0625 C11.66214844 9.88009766 10.94929688 9.69769531 10.21484375 9.50976562 C6.16030687 8.48683201 2.14052941 7.62042633 -2 7 C-1.34 6.67 -0.68 6.34 0 6 C0 4.02 0 2.04 0 0 Z " fill="#EFEEEA" transform="translate(296,5)"/>
<path d="M0 0 C2.64 0 5.28 0 8 0 C8 6.6 8 13.2 8 20 C4.37 20 0.74 20 -3 20 C-2.68839539 17.79154015 -2.37567654 15.58323749 -2.0625 13.375 C-1.88847656 12.14523438 -1.71445313 10.91546875 -1.53515625 9.6484375 C-1.06225699 6.42443816 -0.54848998 3.21187824 0 0 Z " fill="#FEFEFC" transform="translate(208,205)"/>
<path d="M0 0 C0.33 0 0.66 0 1 0 C1 7.26 1 14.52 1 22 C-1.97 22 -4.94 22 -8 22 C-8 15.4 -8 8.8 -8 2 C-5.36 2 -2.72 2 0 2 C0 1.34 0 0.68 0 0 Z " fill="#F0EEEA" transform="translate(289,143)"/>
<path d="M0 0 C2.97 0 5.94 0 9 0 C9 6.6 9 13.2 9 20 C6.03 20 3.06 20 0 20 C0 13.4 0 6.8 0 0 Z " fill="#FFFFFF" transform="translate(263,185)"/>
<path d="M0 0 C2.97 0 5.94 0 9 0 C9 6.6 9 13.2 9 20 C6.03 20 3.06 20 0 20 C0 13.4 0 6.8 0 0 Z " fill="#FFFFFF" transform="translate(281,165)"/>
<path d="M0 0 C2.97 0 5.94 0 9 0 C9 6.6 9 13.2 9 20 C6.03 20 3.06 20 0 20 C0 13.4 0 6.8 0 0 Z " fill="#FFFFFF" transform="translate(263,145)"/>
<path d="M0 0 C16.92307692 1.92307692 16.92307692 1.92307692 20 5 C20 6.98 20 8.96 20 11 C13.4 11 6.8 11 0 11 C0 7.37 0 3.74 0 0 Z " fill="#FEFEFE" transform="translate(176,474)"/>
<path d="M0 0 C2.97 0 5.94 0 9 0 C9 6.6 9 13.2 9 20 C7.02 20 5.04 20 3 20 C3 23.3 3 26.6 3 30 C2.67 30 2.34 30 2 30 C1.93941406 28.75605469 1.87882812 27.51210937 1.81640625 26.23046875 C1.37881793 17.46549554 0.88601641 8.73359029 0 0 Z " fill="#F0EDE8" transform="translate(307,205)"/>
<path d="M0 0 C0.33 0 0.66 0 1 0 C1 4.29 1 8.58 1 13 C4.3 13 7.6 13 11 13 C11 17.62 11 22.24 11 27 C7.7 27 4.4 27 1 27 C0.13495257 23.53981027 -0.11713493 21.08428675 -0.09765625 17.578125 C-0.09443359 16.55332031 -0.09121094 15.52851563 -0.08789062 14.47265625 C-0.07951172 13.40917969 -0.07113281 12.34570312 -0.0625 11.25 C-0.05798828 10.17105469 -0.05347656 9.09210938 -0.04882812 7.98046875 C-0.03705727 5.32025617 -0.02061399 2.66015635 0 0 Z " fill="#F0EBE1" transform="translate(242,212)"/>
<path d="M0 0 C5.77060205 2.30824082 8.59342469 4.88554597 12 10 C12.80056869 12.49533984 12.94480515 14.35064731 13 17 C8.71 17 4.42 17 0 17 C0 11.39 0 5.78 0 0 Z " fill="#FEFDFB" transform="translate(336,348)"/>
<path d="M0 0 C2.64 0 5.28 0 8 0 C8 6.6 8 13.2 8 20 C5.36 20 2.72 20 0 20 C0 13.4 0 6.8 0 0 Z " fill="#FFFFFF" transform="translate(485,245)"/>
<path d="M0 0 C2.64 0 5.28 0 8 0 C8 6.6 8 13.2 8 20 C5.36 20 2.72 20 0 20 C0 13.4 0 6.8 0 0 Z " fill="#FFFFFF" transform="translate(0,245)"/>
<path d="M0 0 C2.64 0 5.28 0 8 0 C8 6.6 8 13.2 8 20 C5.36 20 2.72 20 0 20 C0 13.4 0 6.8 0 0 Z " fill="#EFEFEE" transform="translate(208,185)"/>
<path d="M0 0 C2.64 0 5.28 0 8 0 C8 6.6 8 13.2 8 20 C5.36 20 2.72 20 0 20 C0 13.4 0 6.8 0 0 Z " fill="#F0F0F0" transform="translate(245,145)"/>
<path d="M0 0 C3.20823081 1.60411541 4.94209863 2.66063933 7.453125 5.00390625 C8.071875 5.57947266 8.690625 6.15503906 9.328125 6.74804688 C10.27945312 7.64620117 10.27945312 7.64620117 11.25 8.5625 C11.8996875 9.16513672 12.549375 9.76777344 13.21875 10.38867188 C16.73480202 13.67943065 16.73480202 13.67943065 18 15 C18 15.33 18 15.66 18 16 C12.06 16 6.12 16 0 16 C0 10.72 0 5.44 0 0 Z " fill="#EFEEEA" transform="translate(376,89)"/>
<path d="M0 0 C0.33 0 0.66 0 1 0 C1 6.27 1 12.54 1 19 C-2.63 19 -6.26 19 -10 19 C-10 14.38 -10 9.76 -10 5 C-6.7 5 -3.4 5 0 5 C0 3.35 0 1.7 0 0 Z " fill="#F0EEE9" transform="translate(291,220)"/>
<path d="M0 0 C0.33 0 0.66 0 1 0 C1.07476562 0.6084375 1.14953125 1.216875 1.2265625 1.84375 C2.36546302 9.43642013 4.7697671 16.19779497 7.5625 23.30078125 C8.80959864 26.51002694 9.94356194 29.72402622 11 33 C7.37 33 3.74 33 0 33 C0 22.11 0 11.22 0 0 Z " fill="#FEFBF6" transform="translate(96,212)"/>
<path d="M0 0 C0.33 0 0.66 0 1 0 C1 5.94 1 11.88 1 18 C-4.94 18 -10.88 18 -17 18 C-14.51549015 15.51549015 -12.31520815 13.39711449 -9.625 11.25 C-6.21586328 8.38456181 -3.71132848 5.17606793 -1.1640625 1.5390625 C-0.58785156 0.77722656 -0.58785156 0.77722656 0 0 Z " fill="#EFEEEC" transform="translate(195,247)"/>
<path d="M0 0 C6.6 0 13.2 0 20 0 C16.12782176 3.09774259 12.23848168 6.15964776 8.3125 9.1875 C7.73177734 9.63802734 7.15105469 10.08855469 6.55273438 10.55273438 C2.23364206 13.88317897 2.23364206 13.88317897 0 15 C0 10.05 0 5.1 0 0 Z " fill="#EFEEEC" transform="translate(96,45)"/>
<path d="M0 0 C0 5.28 0 10.56 0 16 C-5.61 16 -11.22 16 -17 16 C-4.06382979 0 -4.06382979 0 0 0 Z " fill="#EFEDE9" transform="translate(116,89)"/>
<path d="M0 0 C6.84416656 3.57763252 13.00590847 8.14764019 19 13 C19 13.33 19 13.66 19 14 C12.73 14 6.46 14 0 14 C0 9.38 0 4.76 0 0 Z " fill="#FEFDFA" transform="translate(96,431)"/>
<path d="M0 0 C2.64 0 5.28 0 8 0 C5.75985449 11.35346476 3.40058494 22.67947506 1 34 C0.67 34 0.34 34 0 34 C0 22.78 0 11.56 0 0 Z " fill="#FEFCF8" transform="translate(336,185)"/>
<path d="M0 0 C1.98 0 3.96 0 6 0 C6 6.6 6 13.2 6 20 C3.03 20 0.06 20 -3 20 C-2.690625 18.55625 -2.38125 17.1125 -2.0625 15.625 C-1.01750202 10.43706676 -0.42618094 5.27118533 0 0 Z " fill="#FEFEFD" transform="translate(310,225)"/>
<path d="M0 0 C4.17633367 3.48027806 7.12531548 6.07247803 10.375 10.1875 C11.06335938 11.04730469 11.75171875 11.90710938 12.4609375 12.79296875 C14 15 14 15 14 17 C9.38 17 4.76 17 0 17 C0 11.39 0 5.78 0 0 Z " fill="#EFEEEB" transform="translate(396,108)"/>
<path d="M0 0 C5.28 0 10.56 0 16 0 C16 4.95 16 9.9 16 15 C11.5116323 12.00775486 8.31600724 9.56446982 4.625 5.8125 C3.75101562 4.93207031 2.87703125 4.05164063 1.9765625 3.14453125 C0 1 0 1 0 0 Z " fill="#FEFEFC" transform="translate(100,385)"/>
<path d="M0 0 C4.62 0 9.24 0 14 0 C12.05613861 3.88772277 9.76298958 6.95020101 7 10.25 C6.54882812 10.80429687 6.09765625 11.35859375 5.6328125 11.9296875 C4.46926971 13.32731582 3.23905262 14.66885563 2 16 C1.34 16 0.68 16 0 16 C0 10.72 0 5.44 0 0 Z " fill="#FEFDFA" transform="translate(396,365)"/>
<path d="M0 0 C6.27 0 12.54 0 19 0 C19 4.62 19 9.24 19 14 C14.11670835 10.77072649 9.25527355 7.51389429 4.4375 4.1875 C3.59058594 3.60355469 2.74367188 3.01960938 1.87109375 2.41796875 C1.25363281 1.95003906 0.63617188 1.48210938 0 1 C0 0.67 0 0.34 0 0 Z " fill="#EFEEEB" transform="translate(377,45)"/>
<path d="M0 0 C0 4.29 0 8.58 0 13 C-5.94 13 -11.88 13 -18 13 C-14.71996979 9.71996979 -11.56354238 7.02320386 -7.875 4.25 C-7.06869141 3.63318359 -7.06869141 3.63318359 -6.24609375 3.00390625 C-2.244212 0 -2.244212 0 0 0 Z " fill="#FEFDFA" transform="translate(396,432)"/>
<path d="M0 0 C0 5.28 0 10.56 0 16 C-1.8975 16.103125 -3.795 16.20625 -5.75 16.3125 C-10.18117187 16.55332456 -12.67148232 16.98656045 -16 20 C-14.28348685 16.05298953 -11.68961129 12.80763266 -9.0625 9.4375 C-8.61970703 8.86064453 -8.17691406 8.28378906 -7.72070312 7.68945312 C-1.76958081 0 -1.76958081 0 0 0 Z " fill="#F0EFEB" transform="translate(96,109)"/>
<path d="M0 0 C2.97 0 5.94 0 9 0 C9 4.62 9 9.24 9 14 C6.03 14 3.06 14 0 14 C0 9.38 0 4.76 0 0 Z " fill="#FEFEFE" transform="translate(263,225)"/>
<path d="M0 0 C1.98 0 3.96 0 6 0 C6 6.6 6 13.2 6 20 C4.02 20 2.04 20 0 20 C0 13.4 0 6.8 0 0 Z " fill="#F0F0F0" transform="translate(170,385)"/>
<path d="M0 0 C1.98 0 3.96 0 6 0 C6 6.6 6 13.2 6 20 C4.02 20 2.04 20 0 20 C0 13.4 0 6.8 0 0 Z " fill="#FFFFFF" transform="translate(170,365)"/>
<path d="M0 0 C1.98 0 3.96 0 6 0 C6 6.6 6 13.2 6 20 C4.02 20 2.04 20 0 20 C0 13.4 0 6.8 0 0 Z " fill="#F0F0F0" transform="translate(170,345)"/>
<path d="M0 0 C4.29 0 8.58 0 13 0 C13 5.28 13 10.56 13 16 C9.1861297 12.94890376 6.63876044 10.5988126 3.6875 6.875 C2.99011719 6.00617188 2.29273437 5.13734375 1.57421875 4.2421875 C0 2 0 2 0 0 Z " fill="#FEFCF9" transform="translate(83,365)"/>
<path d="M0 0 C4.95 0 9.9 0 15 0 C11.07870402 4.78206827 7.09151697 9.41756667 2 13 C1.34 13 0.68 13 0 13 C0 8.71 0 4.42 0 0 Z " fill="#FEFDFA" transform="translate(378,385)"/>
<path d="M0 0 C4.29 0 8.58 0 13 0 C9.43100376 5.65091072 5.36862184 10.94159577 1 16 C0.67 16 0.34 16 0 16 C0 10.72 0 5.44 0 0 Z " fill="#EFEEEA" transform="translate(56,85)"/>
<path d="M0 0 C3.03281652 3.03281652 5.97580906 5.9923601 8.8125 9.1875 C9.41707031 9.86167969 10.02164063 10.53585937 10.64453125 11.23046875 C12 13 12 13 12 15 C8.04 15 4.08 15 0 15 C0 10.05 0 5.1 0 0 Z " fill="#FEFDFB" transform="translate(56,390)"/>
<path d="M0 0 C6.6 0 13.2 0 20 0 C20 1.65 20 3.3 20 5 C13.4 5 6.8 5 0 5 C0 3.35 0 1.7 0 0 Z " fill="#FFFFFF" transform="translate(436,485)"/>
<path d="M0 0 C6.6 0 13.2 0 20 0 C20 1.65 20 3.3 20 5 C13.4 5 6.8 5 0 5 C0 3.35 0 1.7 0 0 Z " fill="#F0F0F0" transform="translate(416,485)"/>
<path d="M0 0 C6.6 0 13.2 0 20 0 C20 1.65 20 3.3 20 5 C13.4 5 6.8 5 0 5 C0 3.35 0 1.7 0 0 Z " fill="#FFFFFF" transform="translate(396,485)"/>
<path d="M0 0 C6.6 0 13.2 0 20 0 C20 1.65 20 3.3 20 5 C13.4 5 6.8 5 0 5 C0 3.35 0 1.7 0 0 Z " fill="#F0F0F0" transform="translate(376,485)"/>
<path d="M0 0 C6.6 0 13.2 0 20 0 C20 1.65 20 3.3 20 5 C13.4 5 6.8 5 0 5 C0 3.35 0 1.7 0 0 Z " fill="#FFFFFF" transform="translate(356,485)"/>
<path d="M0 0 C6.6 0 13.2 0 20 0 C20 1.65 20 3.3 20 5 C13.4 5 6.8 5 0 5 C0 3.35 0 1.7 0 0 Z " fill="#F0F0F0" transform="translate(336,485)"/>
<path d="M0 0 C6.6 0 13.2 0 20 0 C20 1.65 20 3.3 20 5 C13.4 5 6.8 5 0 5 C0 3.35 0 1.7 0 0 Z " fill="#FFFFFF" transform="translate(316,485)"/>
<path d="M0 0 C6.6 0 13.2 0 20 0 C20 1.65 20 3.3 20 5 C13.4 5 6.8 5 0 5 C0 3.35 0 1.7 0 0 Z " fill="#F0F0F0" transform="translate(296,485)"/>
<path d="M0 0 C6.6 0 13.2 0 20 0 C20 1.65 20 3.3 20 5 C13.4 5 6.8 5 0 5 C0 3.35 0 1.7 0 0 Z " fill="#FFFFFF" transform="translate(276,485)"/>
<path d="M0 0 C6.6 0 13.2 0 20 0 C20 1.65 20 3.3 20 5 C13.4 5 6.8 5 0 5 C0 3.35 0 1.7 0 0 Z " fill="#FFFFFF" transform="translate(236,485)"/>
<path d="M0 0 C6.6 0 13.2 0 20 0 C20 1.65 20 3.3 20 5 C13.4 5 6.8 5 0 5 C0 3.35 0 1.7 0 0 Z " fill="#FFFFFF" transform="translate(196,485)"/>
<path d="M0 0 C6.6 0 13.2 0 20 0 C20 1.65 20 3.3 20 5 C13.4 5 6.8 5 0 5 C0 3.35 0 1.7 0 0 Z " fill="#F0F0F0" transform="translate(176,485)"/>
<path d="M0 0 C6.6 0 13.2 0 20 0 C20 1.65 20 3.3 20 5 C13.4 5 6.8 5 0 5 C0 3.35 0 1.7 0 0 Z " fill="#FFFFFF" transform="translate(156,485)"/>
<path d="M0 0 C6.6 0 13.2 0 20 0 C20 1.65 20 3.3 20 5 C13.4 5 6.8 5 0 5 C0 3.35 0 1.7 0 0 Z " fill="#FFFFFF" transform="translate(116,485)"/>
<path d="M0 0 C6.6 0 13.2 0 20 0 C20 1.65 20 3.3 20 5 C13.4 5 6.8 5 0 5 C0 3.35 0 1.7 0 0 Z " fill="#FFFFFF" transform="translate(76,485)"/>
<path d="M0 0 C6.6 0 13.2 0 20 0 C20 1.65 20 3.3 20 5 C13.4 5 6.8 5 0 5 C0 3.35 0 1.7 0 0 Z " fill="#FFFFFF" transform="translate(36,485)"/>
<path d="M0 0 C6.6 0 13.2 0 20 0 C20 1.65 20 3.3 20 5 C13.4 5 6.8 5 0 5 C0 3.35 0 1.7 0 0 Z " fill="#F0F0F0" transform="translate(436,0)"/>
<path d="M0 0 C6.6 0 13.2 0 20 0 C20 1.65 20 3.3 20 5 C13.4 5 6.8 5 0 5 C0 3.35 0 1.7 0 0 Z " fill="#FFFFFF" transform="translate(416,0)"/>
<path d="M0 0 C6.6 0 13.2 0 20 0 C20 1.65 20 3.3 20 5 C13.4 5 6.8 5 0 5 C0 3.35 0 1.7 0 0 Z " fill="#F0F0F0" transform="translate(396,0)"/>
<path d="M0 0 C6.6 0 13.2 0 20 0 C20 1.65 20 3.3 20 5 C13.4 5 6.8 5 0 5 C0 3.35 0 1.7 0 0 Z " fill="#FFFFFF" transform="translate(376,0)"/>
<path d="M0 0 C6.6 0 13.2 0 20 0 C20 1.65 20 3.3 20 5 C13.4 5 6.8 5 0 5 C0 3.35 0 1.7 0 0 Z " fill="#F0F0F0" transform="translate(356,0)"/>
<path d="M0 0 C6.6 0 13.2 0 20 0 C20 1.65 20 3.3 20 5 C13.4 5 6.8 5 0 5 C0 3.35 0 1.7 0 0 Z " fill="#FFFFFF" transform="translate(336,0)"/>
<path d="M0 0 C6.6 0 13.2 0 20 0 C20 1.65 20 3.3 20 5 C13.4 5 6.8 5 0 5 C0 3.35 0 1.7 0 0 Z " fill="#F0F0F0" transform="translate(316,0)"/>
<path d="M0 0 C6.6 0 13.2 0 20 0 C20 1.65 20 3.3 20 5 C13.4 5 6.8 5 0 5 C0 3.35 0 1.7 0 0 Z " fill="#FFFFFF" transform="translate(296,0)"/>
<path d="M0 0 C6.6 0 13.2 0 20 0 C20 1.65 20 3.3 20 5 C13.4 5 6.8 5 0 5 C0 3.35 0 1.7 0 0 Z " fill="#FFFFFF" transform="translate(256,0)"/>
<path d="M0 0 C6.6 0 13.2 0 20 0 C20 1.65 20 3.3 20 5 C13.4 5 6.8 5 0 5 C0 3.35 0 1.7 0 0 Z " fill="#FFFFFF" transform="translate(216,0)"/>
<path d="M0 0 C6.6 0 13.2 0 20 0 C20 1.65 20 3.3 20 5 C13.4 5 6.8 5 0 5 C0 3.35 0 1.7 0 0 Z " fill="#F0F0F0" transform="translate(196,0)"/>
<path d="M0 0 C6.6 0 13.2 0 20 0 C20 1.65 20 3.3 20 5 C13.4 5 6.8 5 0 5 C0 3.35 0 1.7 0 0 Z " fill="#FFFFFF" transform="translate(176,0)"/>
<path d="M0 0 C6.6 0 13.2 0 20 0 C20 1.65 20 3.3 20 5 C13.4 5 6.8 5 0 5 C0 3.35 0 1.7 0 0 Z " fill="#F0F0F0" transform="translate(156,0)"/>
<path d="M0 0 C6.6 0 13.2 0 20 0 C20 1.65 20 3.3 20 5 C13.4 5 6.8 5 0 5 C0 3.35 0 1.7 0 0 Z " fill="#FFFFFF" transform="translate(136,0)"/>
<path d="M0 0 C6.6 0 13.2 0 20 0 C20 1.65 20 3.3 20 5 C13.4 5 6.8 5 0 5 C0 3.35 0 1.7 0 0 Z " fill="#F0F0F0" transform="translate(116,0)"/>
<path d="M0 0 C6.6 0 13.2 0 20 0 C20 1.65 20 3.3 20 5 C13.4 5 6.8 5 0 5 C0 3.35 0 1.7 0 0 Z " fill="#FFFFFF" transform="translate(96,0)"/>
<path d="M0 0 C6.6 0 13.2 0 20 0 C20 1.65 20 3.3 20 5 C13.4 5 6.8 5 0 5 C0 3.35 0 1.7 0 0 Z " fill="#F0F0F0" transform="translate(76,0)"/>
<path d="M0 0 C6.6 0 13.2 0 20 0 C20 1.65 20 3.3 20 5 C13.4 5 6.8 5 0 5 C0 3.35 0 1.7 0 0 Z " fill="#FFFFFF" transform="translate(56,0)"/>
<path d="M0 0 C6.6 0 13.2 0 20 0 C20 1.65 20 3.3 20 5 C13.4 5 6.8 5 0 5 C0 3.35 0 1.7 0 0 Z " fill="#F0F0F0" transform="translate(36,0)"/>
<path d="M0 0 C6.6 0 13.2 0 20 0 C20 1.98 20 3.96 20 6 C13.13484138 6.26404456 6.74153283 5.25841946 0 4 C0 2.68 0 1.36 0 0 Z " fill="#FEFBF6" transform="translate(276,5)"/>
<path d="M0 0 C1.98 0 3.96 0 6 0 C5.56901343 8.96452064 3.30110566 17.37352947 1 26 C0.67 26 0.34 26 0 26 C0 17.42 0 8.84 0 0 Z " fill="#FCF9F3" transform="translate(136,305)"/>
<path d="M0 0 C5.52924465 2.9321752 10.39705992 5.75113223 15 10 C15 10.33 15 10.66 15 11 C10.05 11 5.1 11 0 11 C0 7.37 0 3.74 0 0 Z " fill="#EFEEEB" transform="translate(356,74)"/>
<path d="M0 0 C6.6 0 13.2 0 20 0 C20 1.32 20 2.64 20 4 C18.33710938 4.19916016 18.33710938 4.19916016 16.640625 4.40234375 C15.1770673 4.58059757 13.71352651 4.75899028 12.25 4.9375 C11.52039063 5.02451172 10.79078125 5.11152344 10.0390625 5.20117188 C6.62415558 5.62027409 3.32396457 6.117274 0 7 C0 4.69 0 2.38 0 0 Z " fill="#EFEFEE" transform="translate(136,125)"/>
<path d="M0 0 C0 1.98 0 3.96 0 6 C-6.6 6 -13.2 6 -20 6 C-20 5.01 -20 4.02 -20 3 C-17.60530271 2.49395076 -15.20948283 1.99500483 -12.8125 1.5 C-12.13896484 1.35691406 -11.46542969 1.21382813 -10.77148438 1.06640625 C-7.12490207 0.31930158 -3.72351043 -0.17352282 0 0 Z " fill="#EFEDE8" transform="translate(296,479)"/>
<path d="M0 0 C3.96 0 7.92 0 12 0 C12 4.62 12 9.24 12 14 C7.76014063 9.88862122 3.72154258 5.59026002 0 1 C0 0.67 0 0.34 0 0 Z " fill="#EFEEEB" transform="translate(424,85)"/>
<path d="M0 0 C4.62 0 9.24 0 14 0 C12.88085919 1.11914081 11.76137493 2.23793937 10.640625 3.35546875 C9.39599682 4.60306033 8.15749029 5.85676269 6.921875 7.11328125 C5.84679687 8.20189453 5.84679687 8.20189453 4.75 9.3125 C4.06421875 10.00988281 3.3784375 10.70726563 2.671875 11.42578125 C1 13 1 13 0 13 C0 8.71 0 4.42 0 0 Z " fill="#EFEEEB" transform="translate(76,65)"/>
<path d="M0 0 C5.12397831 3.64757778 9.1910533 7.00075746 13 12 C8.71 12 4.42 12 0 12 C0 8.04 0 4.08 0 0 Z " fill="#FEFCF9" transform="translate(76,413)"/>
<path d="M0 0 C5.61 0 11.22 0 17 0 C17 1.65 17 3.3 17 5 C11.39 5 5.78 5 0 5 C0 3.35 0 1.7 0 0 Z " fill="#FFFFFF" transform="translate(476,485)"/>
<path d="M0 0 C5.61 0 11.22 0 17 0 C17 1.65 17 3.3 17 5 C11.39 5 5.78 5 0 5 C0 3.35 0 1.7 0 0 Z " fill="#F0F0F0" transform="translate(476,0)"/>
<path d="M0 0 C0 3.3 0 6.6 0 10 C-4.62 10 -9.24 10 -14 10 C-4.57142857 0 -4.57142857 0 0 0 Z " fill="#EFEEEB" transform="translate(136,75)"/>
<path d="M0 0 C0 3.96 0 7.92 0 12 C-3.63 12 -7.26 12 -11 12 C-5 0 -5 0 0 0 Z " fill="#FEFDFB" transform="translate(436,393)"/>
<path d="M0 0 C5.28 0 10.56 0 16 0 C16 1.65 16 3.3 16 5 C10.72 5 5.44 5 0 5 C0 3.35 0 1.7 0 0 Z " fill="#FFFFFF" transform="translate(0,485)"/>
<path d="M0 0 C5.28 0 10.56 0 16 0 C16 1.65 16 3.3 16 5 C10.72 5 5.44 5 0 5 C0 3.35 0 1.7 0 0 Z " fill="#F0F0F0" transform="translate(0,0)"/>
<path d="M0 0 C3.96 0 7.92 0 12 0 C12 3.96 12 7.92 12 12 C7.46712884 8.26704728 3.62617712 4.61513452 0 0 Z " fill="#EFEDE9" transform="translate(404,65)"/>
<path d="M0 0 C5.28 0 10.56 0 16 0 C14.42875661 3.14248678 11.7022315 3.70128824 8.5625 5.125 C7.38816406 5.66382813 6.21382812 6.20265625 5.00390625 6.7578125 C2 8 2 8 0 8 C0 5.36 0 2.72 0 0 Z " fill="#FEFDFB" transform="translate(136,25)"/>
<path d="M0 0 C0.66 0.33 1.32 0.66 2 1 C1.34 1.66 0.68 2.32 0 3 C-0.33 4.98 -0.66 6.96 -1 9 C-6.28 9 -11.56 9 -17 9 C-13.76133379 6.84088919 -10.40130108 5.07082832 -6.9375 3.3125 C-6.30005859 2.97927734 -5.66261719 2.64605469 -5.00585938 2.30273438 C-3.36757761 1.47237238 -1.68580777 0.72905441 0 0 Z " fill="#F0ECE4" transform="translate(357,456)"/>
<path d="M0 0 C5.28 2.31 10.56 4.62 16 7 C16 7.33 16 7.66 16 8 C10.72 8 5.44 8 0 8 C0 5.36 0 2.72 0 0 Z " fill="#EFEEEA" transform="translate(136,457)"/>
<path d="M0 0 C0 0.99 0 1.98 0 3 C-11.55 2.67 -23.1 2.34 -35 2 C-35 1.67 -35 1.34 -35 1 C-23.31556633 0.00859351 -11.72098848 -0.10709533 0 0 Z " fill="#F1E7D2" transform="translate(276,5)"/>
<path d="M0 0 C4.05435034 4.05435034 5.87334812 6.15033262 6.125 11.8125 C6.08375 12.534375 6.0425 13.25625 6 14 C4.02 14 2.04 14 0 14 C0 9.38 0 4.76 0 0 Z " fill="#FEFCF7" transform="translate(136,271)"/>
<path d="M0 0 C4.29 0 8.58 0 13 0 C13 2.31 13 4.62 13 7 C8.14036821 6.39254603 4.2594482 4.27241033 0 2 C0 1.34 0 0.68 0 0 Z " fill="#FEFDFA" transform="translate(343,25)"/>
<path d="M0 0 C1.98 0 3.96 0 6 0 C6 3.3 6 6.6 6 10 C1.125 9.125 1.125 9.125 0 8 C-0.14115161 5.32941149 -0.04247107 2.67567762 0 0 Z " fill="#EFEEE9" transform="translate(170,425)"/>
<path d="M0 0 C0 3.3 0 6.6 0 10 C-3.3 10 -6.6 10 -10 10 C-1.50943396 0 -1.50943396 0 0 0 Z " fill="#FFFFFF" transform="translate(416,415)"/>
<path d="M0 0 C3.22914752 -0.02917228 6.45826083 -0.04685663 9.6875 -0.0625 C10.59951172 -0.07087891 11.51152344 -0.07925781 12.45117188 -0.08789062 C13.33740234 -0.09111328 14.22363281 -0.09433594 15.13671875 -0.09765625 C15.94842529 -0.10289307 16.76013184 -0.10812988 17.59643555 -0.11352539 C20.14864673 0.0070209 22.51026137 0.440051 25 1 C25 1.33 25 1.66 25 2 C12.625 2.495 12.625 2.495 0 3 C0 2.01 0 1.02 0 0 Z " fill="#F0EDE6" transform="translate(216,5)"/>
<path d="M0 0 C2.17186421 2.17186421 2.6793248 3.49976531 3.625 6.375 C3.88539062 7.14585937 4.14578125 7.91671875 4.4140625 8.7109375 C5 11 5 11 5 15 C3.35 15 1.7 15 0 15 C0 10.05 0 5.1 0 0 Z " fill="#FDF9F0" transform="translate(16,310)"/>
<path d="M0 0 C7 8.44827586 7 8.44827586 7 12 C4.69 12 2.38 12 0 12 C0 8.04 0 4.08 0 0 Z " fill="#EFECE5" transform="translate(416,133)"/>
<path d="M0 0 C2.31 0 4.62 0 7 0 C5.55007731 4.10811428 3.54592427 7.46855666 1 11 C0.67 11 0.34 11 0 11 C0 7.37 0 3.74 0 0 Z " fill="#FEFCF8" transform="translate(416,345)"/>
<path d="M0 0 C1.65 0 3.3 0 5 0 C3.84941444 5.39795989 2.57578241 10.70987333 1 16 C0.67 16 0.34 16 0 16 C0 10.72 0 5.44 0 0 Z " fill="#EFEDE8" transform="translate(16,165)"/>
<path d="M0 0 C3.3 0 6.6 0 10 0 C10 2.31 10 4.62 10 7 C5.56541027 5.6062718 3.12621626 3.39417765 0 0 Z " fill="#FEFCF8" transform="translate(123,405)"/>
<path d="M0 0 C4.62 0 9.24 0 14 0 C14 0.99 14 1.98 14 3 C9.38 3 4.76 3 0 3 C0 2.01 0 1.02 0 0 Z " fill="#FFFFFF" transform="translate(236,445)"/>
<path d="M0 0 C0.33 0 0.66 0 1 0 C1 3.3 1 6.6 1 10 C0.05125 10.309375 -0.8975 10.61875 -1.875 10.9375 C-4.86080408 11.87394742 -4.86080408 11.87394742 -7 13 C-5.37621488 8.27626146 -2.89006982 4.05818166 0 0 Z " fill="#F1EDE6" transform="translate(75,135)"/>
<path d="M0 0 C2.77170395 0.11386459 5.54178046 0.24060778 8.3125 0.375 C9.09818359 0.4059375 9.88386719 0.436875 10.69335938 0.46875 C11.8293457 0.52675781 11.8293457 0.52675781 12.98828125 0.5859375 C14.03302612 0.63306885 14.03302612 0.63306885 15.09887695 0.68115234 C17 1 17 1 20 3 C13.4 3 6.8 3 0 3 C0 2.01 0 1.02 0 0 Z " fill="#FEFBF6" transform="translate(216,482)"/>
<path d="M0 0 C2.31 0 4.62 0 7 0 C7 2.97 7 5.94 7 9 C4.03595495 6.19195732 1.55500981 3.81684226 0 0 Z " fill="#FEFCF8" transform="translate(189,145)"/>
<path d="M0 0 C5.94 0.33 11.88 0.66 18 1 C13.66061709 3.16969145 11.51609592 3.21326104 6.75 3.125 C5.48671875 3.10695312 4.2234375 3.08890625 2.921875 3.0703125 C1.95765625 3.04710937 0.9934375 3.02390625 0 3 C0 2.01 0 1.02 0 0 Z " fill="#FDF8ED" transform="translate(256,42)"/>
<path d="M0 0 C1.98 0 3.96 0 6 0 C6 3.3 6 6.6 6 10 C3.25722422 6.80009492 1.3697164 3.99500618 0 0 Z " fill="#FEFCF8" transform="translate(70,345)"/>
<path d="M0 0 C1.65 0 3.3 0 5 0 C3.68 4.29 2.36 8.58 1 13 C0.67 13 0.34 13 0 13 C0 8.71 0 4.42 0 0 Z " fill="#EFEBE1" transform="translate(436,305)"/>
<path d="M0 0 C2.94956528 1.36944102 5.52468811 2.87830409 8 5 C8 5.66 8 6.32 8 7 C5.36 7 2.72 7 0 7 C0 4.69 0 2.38 0 0 Z " fill="#FEFCF9" transform="translate(116,258)"/>
<path d="M0 0 C1.98 0 3.96 0 6 0 C6.99 2.97 7.98 5.94 9 9 C8.34 9 7.68 9 7 9 C7 8.34 7 7.68 7 7 C6.401875 6.773125 5.80375 6.54625 5.1875 6.3125 C2.43648112 4.66188867 1.47515363 2.8027919 0 0 Z " fill="#FCF5E6" transform="translate(124,245)"/>
<path d="M0 0 C0.99 0.33 1.98 0.66 3 1 C3.33 3.64 3.66 6.28 4 9 C2.68 9 1.36 9 0 9 C0 6.03 0 3.06 0 0 Z " fill="#FDF9F1" transform="translate(436,176)"/>
<path d="M0 0 C1.32 0 2.64 0 4 0 C4 3.96 4 7.92 4 12 C2.09681116 9.14521674 1.5380901 7.58058692 0.875 4.3125 C0.70742188 3.50425781 0.53984375 2.69601563 0.3671875 1.86328125 C0.24601562 1.24839844 0.12484375 0.63351563 0 0 Z " fill="#EFEEEB" transform="translate(472,165)"/>
<path d="M0 0 C2.04119788 1.61594832 4.04072937 3.2856382 6 5 C6 5.66 6 6.32 6 7 C4.02 7 2.04 7 0 7 C0 4.69 0 2.38 0 0 Z " fill="#FEFDFA" transform="translate(236,258)"/>
<path d="M0 0 C0.99 0 1.98 0 3 0 C2.03644647 9.41002278 2.03644647 9.41002278 1 14 C0.67 14 0.34 14 0 14 C0 9.38 0 4.76 0 0 Z " fill="#EFE7D6" transform="translate(336,205)"/>
<path d="M0 0 C0.33 0 0.66 0 1 0 C1 2.64 1 5.28 1 8 C-0.32 8 -1.64 8 -3 8 C-2.25 2.25 -2.25 2.25 0 0 Z " fill="#FEFBF6" transform="translate(475,317)"/>
<path d="M0 0 C1.32 0 2.64 0 4 0 C4 2.97 4 5.94 4 9 C1.3144406 6.3144406 0.93950026 3.62378672 0 0 Z " fill="#EFECE6" transform="translate(52,305)"/>
<path d="M0 0 C0.33 0 0.66 0 1 0 C1.66 4.29 2.32 8.58 3 13 C2.01 13 1.02 13 0 13 C0 8.71 0 4.42 0 0 Z " fill="#EFE7D6" transform="translate(96,212)"/>
<path d="M0 0 C0.33 0 0.66 0 1 0 C1 2.97 1 5.94 1 9 C0.01 9 -0.98 9 -2 9 C-1.125 2.25 -1.125 2.25 0 0 Z " fill="#FEFBF4" transform="translate(55,176)"/>
</svg>
